<svg xmlns="http://www.w3.org/2000/svg" xmlns:xlink="http://www.w3.org/1999/xlink" width="1920" zoomAndPan="magnify" viewBox="0 0 1440 809.999993" height="1080" preserveAspectRatio="xMidYMid meet" version="1.0"><defs><g/></defs><g fill="#000000" fill-opacity="1"><g transform="translate(621.638639, 417.374999)"><g><path d="M 3.1875 7.421875 L 3.1875 -18.3125 L 5.890625 -18.3125 L 5.890625 -15.578125 L 6.25 -15.5 C 7.601562 -17.601562 9.597656 -18.65625 12.234375 -18.65625 C 13.765625 -18.65625 15.097656 -18.304688 16.234375 -17.609375 C 17.378906 -16.910156 18.265625 -15.847656 18.890625 -14.421875 C 19.523438 -13.003906 19.84375 -11.242188 19.84375 -9.140625 C 19.84375 -7.054688 19.507812 -5.304688 18.84375 -3.890625 C 18.175781 -2.472656 17.253906 -1.410156 16.078125 -0.703125 C 14.910156 -0.00390625 13.5625 0.34375 12.03125 0.34375 C 10.789062 0.34375 9.6875 0.128906 8.71875 -0.296875 C 7.757812 -0.734375 6.9375 -1.441406 6.25 -2.421875 L 5.890625 -2.359375 L 5.890625 7.421875 Z M 11.4375 -2.078125 C 15.144531 -2.078125 17 -4.429688 17 -9.140625 C 17 -13.867188 15.144531 -16.234375 11.4375 -16.234375 C 10.351562 -16.234375 9.394531 -15.984375 8.5625 -15.484375 C 7.738281 -14.992188 7.085938 -14.21875 6.609375 -13.15625 C 6.128906 -12.101562 5.890625 -10.765625 5.890625 -9.140625 C 5.890625 -7.535156 6.128906 -6.203125 6.609375 -5.140625 C 7.085938 -4.085938 7.738281 -3.3125 8.5625 -2.8125 C 9.394531 -2.320312 10.351562 -2.078125 11.4375 -2.078125 Z M 11.4375 -2.078125 "/></g></g></g><g fill="#000000" fill-opacity="1"><g transform="translate(643.483784, 417.374999)"><g><path d="M 7.28125 0.34375 C 5.988281 0.34375 4.972656 -0.0195312 4.234375 -0.75 C 3.492188 -1.488281 3.125 -2.585938 3.125 -4.046875 L 3.125 -25.671875 L 5.828125 -25.671875 L 5.828125 -4.234375 C 5.828125 -3.472656 5.972656 -2.921875 6.265625 -2.578125 C 6.554688 -2.242188 7.015625 -2.078125 7.640625 -2.078125 C 8.015625 -2.078125 8.394531 -2.140625 8.78125 -2.265625 L 9.015625 -2.1875 L 9.328125 -0.0625 C 9.128906 0.0703125 8.84375 0.171875 8.46875 0.234375 C 8.101562 0.304688 7.707031 0.34375 7.28125 0.34375 Z M 7.28125 0.34375 "/></g></g></g><g fill="#000000" fill-opacity="1"><g transform="translate(653.443577, 417.374999)"><g><path d="M 7.546875 0.34375 C 5.742188 0.34375 4.335938 -0.125 3.328125 -1.0625 C 2.316406 -2 1.8125 -3.34375 1.8125 -5.09375 C 1.8125 -6.175781 2.035156 -7.09375 2.484375 -7.84375 C 2.929688 -8.59375 3.625 -9.203125 4.5625 -9.671875 C 5.507812 -10.140625 6.738281 -10.503906 8.25 -10.765625 C 9.582031 -10.984375 10.59375 -11.226562 11.28125 -11.5 C 11.96875 -11.78125 12.429688 -12.09375 12.671875 -12.4375 C 12.910156 -12.78125 13.03125 -13.210938 13.03125 -13.734375 C 13.03125 -14.554688 12.742188 -15.1875 12.171875 -15.625 C 11.609375 -16.070312 10.695312 -16.296875 9.4375 -16.296875 C 8.25 -16.296875 7.226562 -16.066406 6.375 -15.609375 C 5.53125 -15.148438 4.753906 -14.46875 4.046875 -13.5625 L 3.71875 -13.5625 L 2.390625 -15.4375 C 3.160156 -16.425781 4.144531 -17.207031 5.34375 -17.78125 C 6.539062 -18.363281 7.90625 -18.65625 9.4375 -18.65625 C 11.59375 -18.65625 13.179688 -18.179688 14.203125 -17.234375 C 15.222656 -16.296875 15.734375 -14.988281 15.734375 -13.3125 L 15.734375 -3.609375 C 15.734375 -2.585938 16.164062 -2.078125 17.03125 -2.078125 C 17.320312 -2.078125 17.597656 -2.125 17.859375 -2.21875 L 18.09375 -2.15625 L 18.40625 -0.28125 C 18.207031 -0.144531 17.945312 -0.0390625 17.625 0.03125 C 17.300781 0.101562 16.96875 0.140625 16.625 0.140625 C 15.613281 0.140625 14.847656 -0.0820312 14.328125 -0.53125 C 13.816406 -0.976562 13.488281 -1.628906 13.34375 -2.484375 L 13 -2.53125 C 12.476562 -1.5625 11.773438 -0.835938 10.890625 -0.359375 C 10.003906 0.109375 8.890625 0.34375 7.546875 0.34375 Z M 8.15625 -1.8125 C 9.164062 -1.8125 10.046875 -2.046875 10.796875 -2.515625 C 11.546875 -2.984375 12.117188 -3.644531 12.515625 -4.5 C 12.910156 -5.351562 13.109375 -6.335938 13.109375 -7.453125 L 13.109375 -9.78125 L 12.796875 -9.84375 C 12.390625 -9.550781 11.890625 -9.304688 11.296875 -9.109375 C 10.710938 -8.921875 9.894531 -8.75 8.84375 -8.59375 C 7.78125 -8.457031 6.9375 -8.238281 6.3125 -7.9375 C 5.6875 -7.632812 5.238281 -7.253906 4.96875 -6.796875 C 4.707031 -6.335938 4.578125 -5.769531 4.578125 -5.09375 C 4.578125 -4.019531 4.890625 -3.203125 5.515625 -2.640625 C 6.148438 -2.085938 7.03125 -1.8125 8.15625 -1.8125 Z M 8.15625 -1.8125 "/></g></g></g><g fill="#000000" fill-opacity="1"><g transform="translate(672.383788, 417.374999)"><g><path d="M 10.515625 0.34375 C 8.890625 0.34375 7.4375 -0.0195312 6.15625 -0.75 C 4.875 -1.488281 3.863281 -2.570312 3.125 -4 C 2.382812 -5.4375 2.015625 -7.148438 2.015625 -9.140625 C 2.015625 -11.148438 2.382812 -12.867188 3.125 -14.296875 C 3.863281 -15.734375 4.875 -16.816406 6.15625 -17.546875 C 7.4375 -18.285156 8.890625 -18.65625 10.515625 -18.65625 C 12.453125 -18.65625 13.988281 -18.289062 15.125 -17.5625 C 16.269531 -16.832031 17.097656 -15.859375 17.609375 -14.640625 L 15.765625 -13.3125 L 15.4375 -13.3125 C 14.9375 -14.320312 14.296875 -15.0625 13.515625 -15.53125 C 12.742188 -16 11.742188 -16.234375 10.515625 -16.234375 C 9.378906 -16.234375 8.382812 -15.96875 7.53125 -15.4375 C 6.6875 -14.90625 6.023438 -14.109375 5.546875 -13.046875 C 5.078125 -11.984375 4.84375 -10.679688 4.84375 -9.140625 C 4.84375 -7.617188 5.082031 -6.328125 5.5625 -5.265625 C 6.039062 -4.210938 6.703125 -3.414062 7.546875 -2.875 C 8.390625 -2.34375 9.378906 -2.078125 10.515625 -2.078125 C 11.785156 -2.078125 12.835938 -2.363281 13.671875 -2.9375 C 14.503906 -3.507812 15.160156 -4.414062 15.640625 -5.65625 L 15.984375 -5.65625 L 17.765625 -4.609375 C 17.285156 -3.078125 16.429688 -1.867188 15.203125 -0.984375 C 13.984375 -0.0976562 12.421875 0.34375 10.515625 0.34375 Z M 10.515625 0.34375 "/></g></g></g><g fill="#000000" fill-opacity="1"><g transform="translate(691.257601, 417.374999)"><g><path d="M 17.453125 -8.53125 L 4.859375 -8.53125 C 4.941406 -6.3125 5.476562 -4.679688 6.46875 -3.640625 C 7.457031 -2.597656 8.816406 -2.078125 10.546875 -2.078125 C 11.847656 -2.078125 12.894531 -2.304688 13.6875 -2.765625 C 14.488281 -3.234375 15.117188 -3.96875 15.578125 -4.96875 L 15.921875 -4.96875 L 17.6875 -3.921875 C 17.15625 -2.585938 16.300781 -1.539062 15.125 -0.78125 C 13.957031 -0.03125 12.429688 0.34375 10.546875 0.34375 C 8.773438 0.34375 7.25 -0.00390625 5.96875 -0.703125 C 4.695312 -1.398438 3.71875 -2.457031 3.03125 -3.875 C 2.351562 -5.289062 2.015625 -7.046875 2.015625 -9.140625 C 2.015625 -11.222656 2.375 -12.976562 3.09375 -14.40625 C 3.820312 -15.832031 4.8125 -16.894531 6.0625 -17.59375 C 7.320312 -18.300781 8.757812 -18.65625 10.375 -18.65625 C 12.71875 -18.65625 14.546875 -17.992188 15.859375 -16.671875 C 17.179688 -15.347656 17.847656 -13.390625 17.859375 -10.796875 C 17.859375 -9.773438 17.835938 -9.085938 17.796875 -8.734375 Z M 15.1875 -10.796875 C 15.144531 -12.742188 14.710938 -14.160156 13.890625 -15.046875 C 13.078125 -15.929688 11.90625 -16.375 10.375 -16.375 C 8.769531 -16.375 7.507812 -15.925781 6.59375 -15.03125 C 5.6875 -14.144531 5.132812 -12.734375 4.9375 -10.796875 Z M 15.1875 -10.796875 "/></g></g></g><g fill="#000000" fill-opacity="1"><g transform="translate(710.778794, 417.374999)"><g><path d="M 3.1875 0 L 3.1875 -25.671875 L 5.890625 -25.671875 L 5.890625 -15.703125 L 6.25 -15.640625 C 7.550781 -17.648438 9.4375 -18.65625 11.90625 -18.65625 C 14.101562 -18.65625 15.695312 -18.09375 16.6875 -16.96875 C 17.675781 -15.851562 18.171875 -14.125 18.171875 -11.78125 L 18.171875 0 L 15.46875 0 L 15.46875 -11.71875 C 15.46875 -12.820312 15.328125 -13.707031 15.046875 -14.375 C 14.765625 -15.050781 14.328125 -15.539062 13.734375 -15.84375 C 13.140625 -16.144531 12.363281 -16.296875 11.40625 -16.296875 C 9.75 -16.296875 8.414062 -15.757812 7.40625 -14.6875 C 6.394531 -13.613281 5.890625 -11.847656 5.890625 -9.390625 L 5.890625 0 Z M 3.1875 0 "/></g></g></g><g fill="#000000" fill-opacity="1"><g transform="translate(731.860355, 417.374999)"><g><path d="M 10.515625 0.34375 C 8.785156 0.34375 7.28125 -0.0195312 6 -0.75 C 4.71875 -1.476562 3.734375 -2.550781 3.046875 -3.96875 C 2.359375 -5.394531 2.015625 -7.117188 2.015625 -9.140625 C 2.015625 -11.171875 2.359375 -12.898438 3.046875 -14.328125 C 3.734375 -15.753906 4.71875 -16.832031 6 -17.5625 C 7.28125 -18.289062 8.785156 -18.65625 10.515625 -18.65625 C 12.234375 -18.65625 13.734375 -18.289062 15.015625 -17.5625 C 16.296875 -16.832031 17.28125 -15.753906 17.96875 -14.328125 C 18.664062 -12.898438 19.015625 -11.171875 19.015625 -9.140625 C 19.015625 -7.117188 18.664062 -5.394531 17.96875 -3.96875 C 17.28125 -2.550781 16.296875 -1.476562 15.015625 -0.75 C 13.734375 -0.0195312 12.234375 0.34375 10.515625 0.34375 Z M 10.515625 -2.078125 C 12.335938 -2.078125 13.734375 -2.648438 14.703125 -3.796875 C 15.671875 -4.953125 16.15625 -6.734375 16.15625 -9.140625 C 16.15625 -11.566406 15.671875 -13.351562 14.703125 -14.5 C 13.734375 -15.65625 12.335938 -16.234375 10.515625 -16.234375 C 8.679688 -16.234375 7.273438 -15.65625 6.296875 -14.5 C 5.328125 -13.34375 4.84375 -11.554688 4.84375 -9.140625 C 4.84375 -6.734375 5.328125 -4.953125 6.296875 -3.796875 C 7.273438 -2.648438 8.679688 -2.078125 10.515625 -2.078125 Z M 10.515625 -2.078125 "/></g></g></g><g fill="#000000" fill-opacity="1"><g transform="translate(752.875517, 417.374999)"><g><path d="M 7.28125 0.34375 C 5.988281 0.34375 4.972656 -0.0195312 4.234375 -0.75 C 3.492188 -1.488281 3.125 -2.585938 3.125 -4.046875 L 3.125 -25.671875 L 5.828125 -25.671875 L 5.828125 -4.234375 C 5.828125 -3.472656 5.972656 -2.921875 6.265625 -2.578125 C 6.554688 -2.242188 7.015625 -2.078125 7.640625 -2.078125 C 8.015625 -2.078125 8.394531 -2.140625 8.78125 -2.265625 L 9.015625 -2.1875 L 9.328125 -0.0625 C 9.128906 0.0703125 8.84375 0.171875 8.46875 0.234375 C 8.101562 0.304688 7.707031 0.34375 7.28125 0.34375 Z M 7.28125 0.34375 "/></g></g></g><g fill="#000000" fill-opacity="1"><g transform="translate(762.83531, 417.374999)"><g><path d="M 9.5 0.34375 C 8.019531 0.34375 6.71875 -0.00390625 5.59375 -0.703125 C 4.476562 -1.410156 3.601562 -2.472656 2.96875 -3.890625 C 2.332031 -5.304688 2.015625 -7.054688 2.015625 -9.140625 C 2.015625 -11.234375 2.34375 -12.988281 3 -14.40625 C 3.664062 -15.832031 4.582031 -16.894531 5.75 -17.59375 C 6.914062 -18.300781 8.269531 -18.65625 9.8125 -18.65625 C 11.03125 -18.65625 12.125 -18.425781 13.09375 -17.96875 C 14.070312 -17.507812 14.910156 -16.753906 15.609375 -15.703125 L 15.953125 -15.765625 L 15.953125 -25.671875 L 18.65625 -25.671875 L 18.65625 0 L 15.953125 0 L 15.953125 -2.671875 L 15.609375 -2.734375 C 15.003906 -1.828125 14.191406 -1.085938 13.171875 -0.515625 C 12.148438 0.0546875 10.925781 0.34375 9.5 0.34375 Z M 10.34375 -2.078125 C 12.050781 -2.078125 13.410156 -2.660156 14.421875 -3.828125 C 15.441406 -4.992188 15.953125 -6.765625 15.953125 -9.140625 C 15.953125 -11.535156 15.441406 -13.316406 14.421875 -14.484375 C 13.410156 -15.648438 12.050781 -16.234375 10.34375 -16.234375 C 8.582031 -16.234375 7.222656 -15.660156 6.265625 -14.515625 C 5.316406 -13.378906 4.84375 -11.585938 4.84375 -9.140625 C 4.84375 -4.429688 6.675781 -2.078125 10.34375 -2.078125 Z M 10.34375 -2.078125 "/></g></g></g><g fill="#000000" fill-opacity="1"><g transform="translate(784.69706, 417.374999)"><g><path d="M 17.453125 -8.53125 L 4.859375 -8.53125 C 4.941406 -6.3125 5.476562 -4.679688 6.46875 -3.640625 C 7.457031 -2.597656 8.816406 -2.078125 10.546875 -2.078125 C 11.847656 -2.078125 12.894531 -2.304688 13.6875 -2.765625 C 14.488281 -3.234375 15.117188 -3.96875 15.578125 -4.96875 L 15.921875 -4.96875 L 17.6875 -3.921875 C 17.15625 -2.585938 16.300781 -1.539062 15.125 -0.78125 C 13.957031 -0.03125 12.429688 0.34375 10.546875 0.34375 C 8.773438 0.34375 7.25 -0.00390625 5.96875 -0.703125 C 4.695312 -1.398438 3.71875 -2.457031 3.03125 -3.875 C 2.351562 -5.289062 2.015625 -7.046875 2.015625 -9.140625 C 2.015625 -11.222656 2.375 -12.976562 3.09375 -14.40625 C 3.820312 -15.832031 4.8125 -16.894531 6.0625 -17.59375 C 7.320312 -18.300781 8.757812 -18.65625 10.375 -18.65625 C 12.71875 -18.65625 14.546875 -17.992188 15.859375 -16.671875 C 17.179688 -15.347656 17.847656 -13.390625 17.859375 -10.796875 C 17.859375 -9.773438 17.835938 -9.085938 17.796875 -8.734375 Z M 15.1875 -10.796875 C 15.144531 -12.742188 14.710938 -14.160156 13.890625 -15.046875 C 13.078125 -15.929688 11.90625 -16.375 10.375 -16.375 C 8.769531 -16.375 7.507812 -15.925781 6.59375 -15.03125 C 5.6875 -14.144531 5.132812 -12.734375 4.9375 -10.796875 Z M 15.1875 -10.796875 "/></g></g></g><g fill="#000000" fill-opacity="1"><g transform="translate(804.218253, 417.374999)"><g><path d="M 3.1875 0 L 3.1875 -18.3125 L 5.765625 -18.3125 L 5.765625 -15.4375 L 6.109375 -15.359375 C 6.960938 -17.441406 8.566406 -18.484375 10.921875 -18.484375 C 12.171875 -18.484375 13.109375 -18.253906 13.734375 -17.796875 L 13.03125 -15.5 L 12.703125 -15.4375 C 12.015625 -15.78125 11.257812 -15.953125 10.4375 -15.953125 C 8.976562 -15.953125 7.851562 -15.40625 7.0625 -14.3125 C 6.28125 -13.21875 5.890625 -11.441406 5.890625 -8.984375 L 5.890625 0 Z M 3.1875 0 "/></g></g></g></svg>