<svg xmlns="http://www.w3.org/2000/svg" xmlns:xlink="http://www.w3.org/1999/xlink" width="338" zoomAndPan="magnify" viewBox="0 0 253.5 253.500006" height="338" preserveAspectRatio="xMidYMid meet" version="1.0"><defs><g/><clipPath id="e768a06cc6"><path d="M 64.667969 35 L 67 35 L 67 48 L 64.667969 48 Z M 64.667969 35 " clip-rule="nonzero"/></clipPath><clipPath id="f7ded2cfb4"><path d="M 64.667969 53 L 67 53 L 67 73 L 64.667969 73 Z M 64.667969 53 " clip-rule="nonzero"/></clipPath><clipPath id="a238bb9f64"><path d="M 64.667969 76 L 67 76 L 67 96 L 64.667969 96 Z M 64.667969 76 " clip-rule="nonzero"/></clipPath><clipPath id="933646b57a"><path d="M 186 60 L 188.175781 60 L 188.175781 90 L 186 90 Z M 186 60 " clip-rule="nonzero"/></clipPath><clipPath id="43e53d901f"><path d="M 65 3.757812 L 187 3.757812 L 187 249.273438 L 65 249.273438 Z M 65 3.757812 " clip-rule="nonzero"/></clipPath></defs><g clip-path="url(#e768a06cc6)"><path fill="#000000" d="M 64.730469 36.820312 C 64.730469 36.292969 65.171875 35.855469 65.699219 35.855469 C 66.226562 35.855469 66.664062 36.292969 66.664062 36.820312 L 66.664062 46.140625 C 66.664062 46.671875 66.226562 47.109375 65.699219 47.109375 C 65.171875 47.109375 64.730469 46.671875 64.730469 46.140625 Z M 64.730469 36.820312 " fill-opacity="1" fill-rule="nonzero"/></g><g clip-path="url(#f7ded2cfb4)"><path fill="#000000" d="M 64.730469 54.320312 C 64.730469 53.792969 65.171875 53.351562 65.699219 53.351562 C 66.226562 53.351562 66.664062 53.792969 66.664062 54.320312 L 66.664062 71.820312 C 66.664062 72.347656 66.226562 72.785156 65.699219 72.785156 C 65.171875 72.785156 64.730469 72.347656 64.730469 71.820312 Z M 64.730469 54.320312 " fill-opacity="1" fill-rule="nonzero"/></g><g clip-path="url(#a238bb9f64)"><path fill="#000000" d="M 64.730469 77.007812 C 64.730469 76.480469 65.171875 76.039062 65.699219 76.039062 C 66.226562 76.039062 66.664062 76.480469 66.664062 77.007812 L 66.664062 94.417969 C 66.664062 94.945312 66.226562 95.472656 65.699219 95.472656 C 65.171875 95.472656 64.730469 94.945312 64.730469 94.417969 Z M 64.730469 77.007812 " fill-opacity="1" fill-rule="nonzero"/></g><g clip-path="url(#933646b57a)"><path fill="#000000" d="M 186.179688 61.003906 C 186.179688 60.476562 186.617188 60.035156 187.144531 60.035156 C 187.671875 60.035156 188.113281 60.476562 188.113281 61.003906 L 188.113281 88.617188 C 188.113281 89.230469 187.671875 89.671875 187.144531 89.671875 C 186.617188 89.671875 186.179688 89.230469 186.179688 88.617188 Z M 186.179688 61.003906 " fill-opacity="1" fill-rule="nonzero"/></g><g clip-path="url(#43e53d901f)"><path fill="#808080" d="M 81.242188 3.757812 L 171.25 3.757812 C 179.769531 3.757812 186.707031 10.703125 186.707031 19.234375 L 186.707031 233.796875 C 186.707031 242.328125 179.769531 249.273438 171.25 249.273438 L 81.242188 249.273438 C 72.722656 249.273438 65.785156 242.328125 65.785156 233.796875 L 65.785156 19.234375 C 65.785156 10.703125 72.722656 3.757812 81.242188 3.757812 Z M 84.753906 11.496094 L 167.828125 11.496094 C 174.324219 11.496094 179.679688 16.859375 179.679688 23.367188 L 179.679688 230.277344 C 179.679688 236.785156 174.324219 242.152344 167.828125 242.152344 L 84.753906 242.152344 C 78.167969 242.152344 72.8125 236.785156 72.8125 230.277344 L 72.8125 23.367188 C 72.8125 16.859375 78.167969 11.496094 84.753906 11.496094 Z M 84.753906 11.496094 " fill-opacity="1" fill-rule="evenodd"/></g><path fill="#000000" d="M 82.558594 5.339844 L 169.933594 5.339844 C 178.1875 5.339844 184.949219 12.113281 184.949219 20.289062 L 184.949219 232.214844 C 184.949219 240.480469 178.1875 247.25 169.933594 247.25 L 82.558594 247.25 C 74.304688 247.25 67.542969 240.480469 67.542969 232.214844 L 67.542969 20.289062 C 67.542969 12.113281 74.304688 5.339844 82.558594 5.339844 Z M 156.058594 11.496094 C 156.058594 11.757812 156.058594 12.023438 156.058594 12.375 C 156.058594 16.246094 152.898438 19.410156 149.035156 19.410156 L 103.195312 19.410156 C 99.332031 19.410156 96.167969 16.246094 96.167969 12.375 C 96.167969 12.023438 96.257812 11.757812 96.257812 11.496094 L 84.753906 11.496094 C 78.167969 11.496094 72.8125 16.859375 72.8125 23.367188 L 72.8125 230.277344 C 72.8125 236.785156 78.167969 242.152344 84.753906 242.152344 L 167.828125 242.152344 C 174.324219 242.152344 179.679688 236.785156 179.679688 230.277344 L 179.679688 23.367188 C 179.679688 16.859375 174.324219 11.496094 167.828125 11.496094 Z M 156.058594 11.496094 " fill-opacity="1" fill-rule="evenodd"/><path fill="#4d4d4d" d="M 141.65625 13.519531 C 141.65625 13.796875 141.605469 14.066406 141.496094 14.324219 C 141.390625 14.585938 141.238281 14.8125 141.039062 15.011719 C 140.84375 15.207031 140.613281 15.359375 140.355469 15.46875 C 140.097656 15.574219 139.828125 15.628906 139.550781 15.628906 C 139.269531 15.628906 139 15.574219 138.742188 15.46875 C 138.484375 15.359375 138.257812 15.207031 138.058594 15.011719 C 137.863281 14.8125 137.710938 14.585938 137.601562 14.324219 C 137.496094 14.066406 137.441406 13.796875 137.441406 13.519531 C 137.441406 13.238281 137.496094 12.96875 137.601562 12.710938 C 137.710938 12.453125 137.863281 12.222656 138.058594 12.027344 C 138.257812 11.828125 138.484375 11.675781 138.742188 11.570312 C 139 11.460938 139.269531 11.40625 139.550781 11.40625 C 139.828125 11.40625 140.097656 11.460938 140.355469 11.570312 C 140.613281 11.675781 140.84375 11.828125 141.039062 12.027344 C 141.238281 12.222656 141.390625 12.453125 141.496094 12.710938 C 141.605469 12.96875 141.65625 13.238281 141.65625 13.519531 Z M 141.65625 13.519531 " fill-opacity="1" fill-rule="nonzero"/><path fill="#4d4d4d" d="M 126 12.816406 C 126.484375 12.816406 126.960938 12.820312 127.433594 12.832031 C 127.90625 12.84375 128.367188 12.859375 128.8125 12.882812 C 129.257812 12.902344 129.683594 12.929688 130.085938 12.964844 C 130.484375 12.996094 130.855469 13.03125 131.199219 13.074219 C 131.539062 13.113281 131.84375 13.15625 132.113281 13.207031 C 132.378906 13.253906 132.605469 13.304688 132.792969 13.359375 C 132.976562 13.410156 133.117188 13.464844 133.210938 13.523438 C 133.304688 13.578125 133.351562 13.636719 133.351562 13.695312 C 133.351562 13.75 133.304688 13.808594 133.210938 13.867188 C 133.117188 13.921875 132.976562 13.976562 132.792969 14.03125 C 132.605469 14.082031 132.378906 14.132812 132.113281 14.183594 C 131.84375 14.230469 131.539062 14.273438 131.199219 14.316406 C 130.855469 14.355469 130.484375 14.394531 130.085938 14.425781 C 129.683594 14.457031 129.257812 14.484375 128.8125 14.507812 C 128.367188 14.527344 127.90625 14.542969 127.433594 14.554688 C 126.960938 14.566406 126.484375 14.574219 126 14.574219 C 125.519531 14.574219 125.039062 14.566406 124.566406 14.554688 C 124.09375 14.542969 123.632812 14.527344 123.1875 14.507812 C 122.742188 14.484375 122.316406 14.457031 121.917969 14.425781 C 121.515625 14.394531 121.144531 14.355469 120.804688 14.316406 C 120.460938 14.273438 120.15625 14.230469 119.890625 14.183594 C 119.621094 14.132812 119.394531 14.082031 119.210938 14.03125 C 119.023438 13.976562 118.886719 13.921875 118.792969 13.867188 C 118.699219 13.808594 118.648438 13.75 118.648438 13.695312 C 118.648438 13.636719 118.699219 13.578125 118.792969 13.523438 C 118.886719 13.464844 119.023438 13.410156 119.210938 13.359375 C 119.394531 13.304688 119.621094 13.253906 119.890625 13.207031 C 120.15625 13.15625 120.460938 13.113281 120.804688 13.074219 C 121.144531 13.03125 121.515625 12.996094 121.917969 12.964844 C 122.316406 12.929688 122.742188 12.902344 123.1875 12.882812 C 123.632812 12.859375 124.09375 12.84375 124.566406 12.832031 C 125.039062 12.820312 125.519531 12.816406 126 12.816406 Z M 126 12.816406 " fill-opacity="1" fill-rule="evenodd"/><g fill="#000000" fill-opacity="1"><g transform="translate(74.507336, 127.380783)"><g><path d="M 2.75 -8.203125 L 2.75 -5.5625 C 2.75 -5.382812 2.707031 -5.21875 2.625 -5.0625 C 2.550781 -4.914062 2.445312 -4.785156 2.3125 -4.671875 C 2.4375 -4.554688 2.539062 -4.414062 2.625 -4.25 C 2.707031 -4.09375 2.75 -3.9375 2.75 -3.78125 L 2.75 -0.984375 L 3.46875 -0.984375 L 3.46875 0.40625 L 1.484375 0.40625 C 1.429688 0.40625 1.367188 0.378906 1.296875 0.328125 C 1.222656 0.273438 1.1875 0.171875 1.1875 0.015625 L 1.1875 -3.203125 C 1.1875 -3.429688 1.117188 -3.625 0.984375 -3.78125 C 0.859375 -3.945312 0.710938 -4.046875 0.546875 -4.078125 L 0.546875 -5.296875 C 0.660156 -5.296875 0.769531 -5.335938 0.875 -5.421875 C 0.976562 -5.515625 1.054688 -5.625 1.109375 -5.75 C 1.160156 -5.882812 1.1875 -6.015625 1.1875 -6.140625 L 1.1875 -9.203125 C 1.1875 -9.367188 1.222656 -9.472656 1.296875 -9.515625 C 1.367188 -9.566406 1.429688 -9.59375 1.484375 -9.59375 L 3.46875 -9.59375 L 3.46875 -8.203125 Z M 2.75 -8.203125 "/></g></g></g><g fill="#000000" fill-opacity="1"><g transform="translate(78.618962, 127.380783)"><g/></g></g><g fill="#000000" fill-opacity="1"><g transform="translate(81.731864, 127.380783)"><g><path d="M 0.9375 1.328125 C 1.09375 1.359375 1.234375 1.382812 1.359375 1.40625 C 1.492188 1.4375 1.613281 1.453125 1.71875 1.453125 C 1.875 1.453125 2.003906 1.410156 2.109375 1.328125 C 2.222656 1.242188 2.332031 1.097656 2.4375 0.890625 C 2.539062 0.679688 2.648438 0.382812 2.765625 0 L 0.078125 -6.796875 L 1.875 -6.796875 L 3.703125 -1.78125 L 5.3125 -6.796875 L 6.984375 -6.796875 L 4.125 1.34375 C 4.019531 1.644531 3.859375 1.921875 3.640625 2.171875 C 3.429688 2.421875 3.171875 2.613281 2.859375 2.75 C 2.546875 2.894531 2.191406 2.96875 1.796875 2.96875 C 1.660156 2.96875 1.523438 2.957031 1.390625 2.9375 C 1.253906 2.914062 1.101562 2.878906 0.9375 2.828125 Z M 0.9375 1.328125 "/></g></g></g><g fill="#000000" fill-opacity="1"><g transform="translate(88.865601, 127.380783)"><g><path d="M 3.921875 0.125 C 3.367188 0.125 2.875 0.0351562 2.4375 -0.140625 C 2 -0.328125 1.625 -0.582031 1.3125 -0.90625 C 1.007812 -1.238281 0.773438 -1.617188 0.609375 -2.046875 C 0.441406 -2.472656 0.359375 -2.921875 0.359375 -3.390625 C 0.359375 -3.859375 0.441406 -4.304688 0.609375 -4.734375 C 0.773438 -5.160156 1.007812 -5.535156 1.3125 -5.859375 C 1.625 -6.191406 2 -6.445312 2.4375 -6.625 C 2.875 -6.8125 3.367188 -6.90625 3.921875 -6.90625 C 4.484375 -6.90625 4.976562 -6.8125 5.40625 -6.625 C 5.84375 -6.445312 6.21875 -6.191406 6.53125 -5.859375 C 6.84375 -5.535156 7.078125 -5.160156 7.234375 -4.734375 C 7.398438 -4.304688 7.484375 -3.859375 7.484375 -3.390625 C 7.484375 -2.921875 7.398438 -2.472656 7.234375 -2.046875 C 7.078125 -1.617188 6.84375 -1.238281 6.53125 -0.90625 C 6.226562 -0.582031 5.859375 -0.328125 5.421875 -0.140625 C 4.984375 0.0351562 4.484375 0.125 3.921875 0.125 Z M 2.15625 -3.390625 C 2.15625 -2.984375 2.234375 -2.628906 2.390625 -2.328125 C 2.546875 -2.023438 2.753906 -1.785156 3.015625 -1.609375 C 3.285156 -1.429688 3.585938 -1.34375 3.921875 -1.34375 C 4.253906 -1.34375 4.550781 -1.429688 4.8125 -1.609375 C 5.082031 -1.785156 5.296875 -2.023438 5.453125 -2.328125 C 5.617188 -2.640625 5.703125 -2.992188 5.703125 -3.390625 C 5.703125 -3.785156 5.617188 -4.140625 5.453125 -4.453125 C 5.296875 -4.765625 5.082031 -5.003906 4.8125 -5.171875 C 4.550781 -5.347656 4.253906 -5.4375 3.921875 -5.4375 C 3.585938 -5.4375 3.285156 -5.347656 3.015625 -5.171875 C 2.753906 -4.992188 2.546875 -4.75 2.390625 -4.4375 C 2.234375 -4.132812 2.15625 -3.785156 2.15625 -3.390625 Z M 2.15625 -3.390625 "/></g></g></g><g fill="#000000" fill-opacity="1"><g transform="translate(96.725681, 127.380783)"><g><path d="M 0.71875 -2.546875 L 0.71875 -6.796875 L 2.46875 -6.796875 L 2.46875 -2.921875 C 2.46875 -2.398438 2.5625 -2.003906 2.75 -1.734375 C 2.9375 -1.472656 3.21875 -1.34375 3.59375 -1.34375 C 3.8125 -1.34375 4.03125 -1.390625 4.25 -1.484375 C 4.476562 -1.578125 4.6875 -1.710938 4.875 -1.890625 C 5.0625 -2.078125 5.21875 -2.304688 5.34375 -2.578125 L 5.34375 -6.796875 L 7.078125 -6.796875 L 7.078125 -1.953125 C 7.078125 -1.765625 7.109375 -1.628906 7.171875 -1.546875 C 7.242188 -1.472656 7.351562 -1.425781 7.5 -1.40625 L 7.5 0 C 7.320312 0.0195312 7.175781 0.0351562 7.0625 0.046875 C 6.945312 0.0664062 6.84375 0.078125 6.75 0.078125 C 6.4375 0.078125 6.179688 0.0078125 5.984375 -0.125 C 5.785156 -0.269531 5.671875 -0.46875 5.640625 -0.71875 L 5.609375 -1.265625 C 5.304688 -0.804688 4.914062 -0.457031 4.4375 -0.21875 C 3.957031 0.0078125 3.429688 0.125 2.859375 0.125 C 2.160156 0.125 1.628906 -0.0976562 1.265625 -0.546875 C 0.898438 -1.003906 0.71875 -1.671875 0.71875 -2.546875 Z M 0.71875 -2.546875 "/></g></g></g><g fill="#000000" fill-opacity="1"><g transform="translate(104.741415, 127.380783)"><g><path d="M 4.84375 -5.296875 C 4.3125 -5.296875 3.835938 -5.191406 3.421875 -4.984375 C 3.003906 -4.785156 2.707031 -4.492188 2.53125 -4.109375 L 2.53125 0 L 0.796875 0 L 0.796875 -6.796875 L 2.390625 -6.796875 L 2.390625 -5.34375 C 2.628906 -5.8125 2.929688 -6.175781 3.296875 -6.4375 C 3.671875 -6.707031 4.066406 -6.859375 4.484375 -6.890625 C 4.578125 -6.890625 4.648438 -6.890625 4.703125 -6.890625 C 4.753906 -6.890625 4.800781 -6.882812 4.84375 -6.875 Z M 4.84375 -5.296875 "/></g></g></g><g fill="#000000" fill-opacity="1"><g transform="translate(109.760975, 127.380783)"><g/></g></g><g fill="#000000" fill-opacity="1"><g transform="translate(112.873876, 127.380783)"><g><path d="M 0.796875 0 L 0.796875 -6.796875 L 2.53125 -6.796875 L 2.53125 0 Z M 0.796875 -7.75 L 0.796875 -9.46875 L 2.53125 -9.46875 L 2.53125 -7.75 Z M 0.796875 -7.75 "/></g></g></g><g fill="#000000" fill-opacity="1"><g transform="translate(116.181333, 127.380783)"><g><path d="M 0.375 -3.390625 C 0.375 -4.054688 0.503906 -4.65625 0.765625 -5.1875 C 1.023438 -5.71875 1.382812 -6.132812 1.84375 -6.4375 C 2.300781 -6.75 2.820312 -6.90625 3.40625 -6.90625 C 3.90625 -6.90625 4.359375 -6.78125 4.765625 -6.53125 C 5.171875 -6.289062 5.484375 -5.984375 5.703125 -5.609375 L 5.703125 -9.46875 L 7.4375 -9.46875 L 7.4375 -1.953125 C 7.4375 -1.765625 7.46875 -1.628906 7.53125 -1.546875 C 7.59375 -1.472656 7.695312 -1.425781 7.84375 -1.40625 L 7.84375 0 C 7.539062 0.0625 7.296875 0.09375 7.109375 0.09375 C 6.796875 0.09375 6.535156 0.015625 6.328125 -0.140625 C 6.128906 -0.296875 6.015625 -0.5 5.984375 -0.75 L 5.96875 -1.1875 C 5.71875 -0.757812 5.378906 -0.429688 4.953125 -0.203125 C 4.523438 0.015625 4.078125 0.125 3.609375 0.125 C 3.140625 0.125 2.707031 0.0351562 2.3125 -0.140625 C 1.914062 -0.328125 1.570312 -0.578125 1.28125 -0.890625 C 1 -1.210938 0.773438 -1.585938 0.609375 -2.015625 C 0.453125 -2.441406 0.375 -2.898438 0.375 -3.390625 Z M 5.703125 -2.484375 L 5.703125 -4.109375 C 5.617188 -4.359375 5.476562 -4.582031 5.28125 -4.78125 C 5.09375 -4.976562 4.882812 -5.132812 4.65625 -5.25 C 4.425781 -5.375 4.191406 -5.4375 3.953125 -5.4375 C 3.679688 -5.4375 3.4375 -5.378906 3.21875 -5.265625 C 3.007812 -5.148438 2.820312 -5 2.65625 -4.8125 C 2.5 -4.625 2.378906 -4.40625 2.296875 -4.15625 C 2.210938 -3.90625 2.171875 -3.640625 2.171875 -3.359375 C 2.171875 -3.078125 2.21875 -2.8125 2.3125 -2.5625 C 2.40625 -2.320312 2.535156 -2.109375 2.703125 -1.921875 C 2.878906 -1.742188 3.082031 -1.601562 3.3125 -1.5 C 3.539062 -1.394531 3.789062 -1.34375 4.0625 -1.34375 C 4.226562 -1.34375 4.394531 -1.367188 4.5625 -1.421875 C 4.726562 -1.484375 4.882812 -1.5625 5.03125 -1.65625 C 5.1875 -1.757812 5.320312 -1.882812 5.4375 -2.03125 C 5.550781 -2.175781 5.640625 -2.328125 5.703125 -2.484375 Z M 5.703125 -2.484375 "/></g></g></g><g fill="#000000" fill-opacity="1"><g transform="translate(124.547262, 127.380783)"><g><path d="M 3.9375 0.125 C 3.394531 0.125 2.898438 0.0351562 2.453125 -0.140625 C 2.015625 -0.328125 1.640625 -0.582031 1.328125 -0.90625 C 1.023438 -1.238281 0.785156 -1.613281 0.609375 -2.03125 C 0.441406 -2.445312 0.359375 -2.890625 0.359375 -3.359375 C 0.359375 -4.003906 0.503906 -4.59375 0.796875 -5.125 C 1.085938 -5.664062 1.503906 -6.097656 2.046875 -6.421875 C 2.585938 -6.742188 3.222656 -6.90625 3.953125 -6.90625 C 4.703125 -6.90625 5.335938 -6.742188 5.859375 -6.421875 C 6.390625 -6.097656 6.796875 -5.671875 7.078125 -5.140625 C 7.359375 -4.609375 7.5 -4.035156 7.5 -3.421875 C 7.5 -3.316406 7.492188 -3.207031 7.484375 -3.09375 C 7.472656 -2.988281 7.460938 -2.90625 7.453125 -2.84375 L 2.203125 -2.84375 C 2.234375 -2.5 2.332031 -2.195312 2.5 -1.9375 C 2.675781 -1.675781 2.894531 -1.476562 3.15625 -1.34375 C 3.414062 -1.207031 3.695312 -1.140625 4 -1.140625 C 4.351562 -1.140625 4.679688 -1.222656 4.984375 -1.390625 C 5.296875 -1.554688 5.503906 -1.78125 5.609375 -2.0625 L 7.109375 -1.640625 C 6.941406 -1.296875 6.703125 -0.988281 6.390625 -0.71875 C 6.085938 -0.457031 5.726562 -0.25 5.3125 -0.09375 C 4.894531 0.0507812 4.4375 0.125 3.9375 0.125 Z M 2.171875 -3.9375 L 5.71875 -3.9375 C 5.6875 -4.289062 5.585938 -4.59375 5.421875 -4.84375 C 5.265625 -5.09375 5.054688 -5.289062 4.796875 -5.4375 C 4.535156 -5.582031 4.242188 -5.65625 3.921875 -5.65625 C 3.617188 -5.65625 3.335938 -5.582031 3.078125 -5.4375 C 2.828125 -5.289062 2.617188 -5.09375 2.453125 -4.84375 C 2.296875 -4.59375 2.203125 -4.289062 2.171875 -3.9375 Z M 2.171875 -3.9375 "/></g></g></g><g fill="#000000" fill-opacity="1"><g transform="translate(132.316553, 127.380783)"><g><path d="M 0.328125 -2.015625 C 0.328125 -2.453125 0.445312 -2.835938 0.6875 -3.171875 C 0.9375 -3.503906 1.28125 -3.757812 1.71875 -3.9375 C 2.164062 -4.125 2.675781 -4.21875 3.25 -4.21875 C 3.53125 -4.21875 3.816406 -4.191406 4.109375 -4.140625 C 4.398438 -4.097656 4.65625 -4.03125 4.875 -3.9375 L 4.875 -4.3125 C 4.875 -4.738281 4.742188 -5.066406 4.484375 -5.296875 C 4.234375 -5.535156 3.859375 -5.65625 3.359375 -5.65625 C 2.984375 -5.65625 2.628906 -5.585938 2.296875 -5.453125 C 1.960938 -5.328125 1.609375 -5.140625 1.234375 -4.890625 L 0.671875 -6.03125 C 1.117188 -6.320312 1.578125 -6.539062 2.046875 -6.6875 C 2.523438 -6.832031 3.023438 -6.90625 3.546875 -6.90625 C 4.515625 -6.90625 5.265625 -6.660156 5.796875 -6.171875 C 6.335938 -5.691406 6.609375 -5.003906 6.609375 -4.109375 L 6.609375 -1.953125 C 6.609375 -1.765625 6.640625 -1.628906 6.703125 -1.546875 C 6.773438 -1.472656 6.882812 -1.425781 7.03125 -1.40625 L 7.03125 0 C 6.875 0.0195312 6.734375 0.0390625 6.609375 0.0625 C 6.484375 0.0820312 6.378906 0.09375 6.296875 0.09375 C 5.941406 0.09375 5.675781 0.015625 5.5 -0.140625 C 5.320312 -0.296875 5.210938 -0.488281 5.171875 -0.71875 L 5.140625 -1.0625 C 4.835938 -0.6875 4.46875 -0.394531 4.03125 -0.1875 C 3.59375 0.0195312 3.144531 0.125 2.6875 0.125 C 2.238281 0.125 1.832031 0.0351562 1.46875 -0.140625 C 1.113281 -0.328125 0.832031 -0.582031 0.625 -0.90625 C 0.425781 -1.238281 0.328125 -1.609375 0.328125 -2.015625 Z M 4.546875 -1.65625 C 4.640625 -1.757812 4.71875 -1.863281 4.78125 -1.96875 C 4.84375 -2.070312 4.875 -2.164062 4.875 -2.25 L 4.875 -2.9375 C 4.664062 -3.03125 4.441406 -3.097656 4.203125 -3.140625 C 3.960938 -3.191406 3.734375 -3.21875 3.515625 -3.21875 C 3.066406 -3.21875 2.695312 -3.117188 2.40625 -2.921875 C 2.113281 -2.722656 1.96875 -2.46875 1.96875 -2.15625 C 1.96875 -1.976562 2.015625 -1.8125 2.109375 -1.65625 C 2.203125 -1.5 2.335938 -1.375 2.515625 -1.28125 C 2.703125 -1.1875 2.921875 -1.140625 3.171875 -1.140625 C 3.429688 -1.140625 3.6875 -1.1875 3.9375 -1.28125 C 4.1875 -1.382812 4.390625 -1.507812 4.546875 -1.65625 Z M 4.546875 -1.65625 "/></g></g></g><g fill="#000000" fill-opacity="1"><g transform="translate(139.761585, 127.380783)"><g/></g></g><g fill="#000000" fill-opacity="1"><g transform="translate(142.874486, 127.380783)"><g><path d="M 7.109375 0 L 5.375 0 L 5.375 -3.8125 C 5.375 -4.34375 5.269531 -4.734375 5.0625 -4.984375 C 4.863281 -5.242188 4.585938 -5.375 4.234375 -5.375 C 4.023438 -5.375 3.800781 -5.3125 3.5625 -5.1875 C 3.332031 -5.070312 3.125 -4.910156 2.9375 -4.703125 C 2.75 -4.492188 2.613281 -4.25 2.53125 -3.96875 L 2.53125 0 L 0.796875 0 L 0.796875 -9.46875 L 2.53125 -9.46875 L 2.53125 -5.53125 C 2.78125 -5.96875 3.117188 -6.304688 3.546875 -6.546875 C 3.984375 -6.785156 4.457031 -6.90625 4.96875 -6.90625 C 5.40625 -6.90625 5.757812 -6.828125 6.03125 -6.671875 C 6.3125 -6.523438 6.53125 -6.320312 6.6875 -6.0625 C 6.84375 -5.8125 6.953125 -5.53125 7.015625 -5.21875 C 7.078125 -4.90625 7.109375 -4.578125 7.109375 -4.234375 Z M 7.109375 0 "/></g></g></g><g fill="#000000" fill-opacity="1"><g transform="translate(150.708628, 127.380783)"><g><path d="M 3.9375 0.125 C 3.394531 0.125 2.898438 0.0351562 2.453125 -0.140625 C 2.015625 -0.328125 1.640625 -0.582031 1.328125 -0.90625 C 1.023438 -1.238281 0.785156 -1.613281 0.609375 -2.03125 C 0.441406 -2.445312 0.359375 -2.890625 0.359375 -3.359375 C 0.359375 -4.003906 0.503906 -4.59375 0.796875 -5.125 C 1.085938 -5.664062 1.503906 -6.097656 2.046875 -6.421875 C 2.585938 -6.742188 3.222656 -6.90625 3.953125 -6.90625 C 4.703125 -6.90625 5.335938 -6.742188 5.859375 -6.421875 C 6.390625 -6.097656 6.796875 -5.671875 7.078125 -5.140625 C 7.359375 -4.609375 7.5 -4.035156 7.5 -3.421875 C 7.5 -3.316406 7.492188 -3.207031 7.484375 -3.09375 C 7.472656 -2.988281 7.460938 -2.90625 7.453125 -2.84375 L 2.203125 -2.84375 C 2.234375 -2.5 2.332031 -2.195312 2.5 -1.9375 C 2.675781 -1.675781 2.894531 -1.476562 3.15625 -1.34375 C 3.414062 -1.207031 3.695312 -1.140625 4 -1.140625 C 4.351562 -1.140625 4.679688 -1.222656 4.984375 -1.390625 C 5.296875 -1.554688 5.503906 -1.78125 5.609375 -2.0625 L 7.109375 -1.640625 C 6.941406 -1.296875 6.703125 -0.988281 6.390625 -0.71875 C 6.085938 -0.457031 5.726562 -0.25 5.3125 -0.09375 C 4.894531 0.0507812 4.4375 0.125 3.9375 0.125 Z M 2.171875 -3.9375 L 5.71875 -3.9375 C 5.6875 -4.289062 5.585938 -4.59375 5.421875 -4.84375 C 5.265625 -5.09375 5.054688 -5.289062 4.796875 -5.4375 C 4.535156 -5.582031 4.242188 -5.65625 3.921875 -5.65625 C 3.617188 -5.65625 3.335938 -5.582031 3.078125 -5.4375 C 2.828125 -5.289062 2.617188 -5.09375 2.453125 -4.84375 C 2.296875 -4.59375 2.203125 -4.289062 2.171875 -3.9375 Z M 2.171875 -3.9375 "/></g></g></g><g fill="#000000" fill-opacity="1"><g transform="translate(158.477918, 127.380783)"><g><path d="M 4.84375 -5.296875 C 4.3125 -5.296875 3.835938 -5.191406 3.421875 -4.984375 C 3.003906 -4.785156 2.707031 -4.492188 2.53125 -4.109375 L 2.53125 0 L 0.796875 0 L 0.796875 -6.796875 L 2.390625 -6.796875 L 2.390625 -5.34375 C 2.628906 -5.8125 2.929688 -6.175781 3.296875 -6.4375 C 3.671875 -6.707031 4.066406 -6.859375 4.484375 -6.890625 C 4.578125 -6.890625 4.648438 -6.890625 4.703125 -6.890625 C 4.753906 -6.890625 4.800781 -6.882812 4.84375 -6.875 Z M 4.84375 -5.296875 "/></g></g></g><g fill="#000000" fill-opacity="1"><g transform="translate(163.497478, 127.380783)"><g><path d="M 3.9375 0.125 C 3.394531 0.125 2.898438 0.0351562 2.453125 -0.140625 C 2.015625 -0.328125 1.640625 -0.582031 1.328125 -0.90625 C 1.023438 -1.238281 0.785156 -1.613281 0.609375 -2.03125 C 0.441406 -2.445312 0.359375 -2.890625 0.359375 -3.359375 C 0.359375 -4.003906 0.503906 -4.59375 0.796875 -5.125 C 1.085938 -5.664062 1.503906 -6.097656 2.046875 -6.421875 C 2.585938 -6.742188 3.222656 -6.90625 3.953125 -6.90625 C 4.703125 -6.90625 5.335938 -6.742188 5.859375 -6.421875 C 6.390625 -6.097656 6.796875 -5.671875 7.078125 -5.140625 C 7.359375 -4.609375 7.5 -4.035156 7.5 -3.421875 C 7.5 -3.316406 7.492188 -3.207031 7.484375 -3.09375 C 7.472656 -2.988281 7.460938 -2.90625 7.453125 -2.84375 L 2.203125 -2.84375 C 2.234375 -2.5 2.332031 -2.195312 2.5 -1.9375 C 2.675781 -1.675781 2.894531 -1.476562 3.15625 -1.34375 C 3.414062 -1.207031 3.695312 -1.140625 4 -1.140625 C 4.351562 -1.140625 4.679688 -1.222656 4.984375 -1.390625 C 5.296875 -1.554688 5.503906 -1.78125 5.609375 -2.0625 L 7.109375 -1.640625 C 6.941406 -1.296875 6.703125 -0.988281 6.390625 -0.71875 C 6.085938 -0.457031 5.726562 -0.25 5.3125 -0.09375 C 4.894531 0.0507812 4.4375 0.125 3.9375 0.125 Z M 2.171875 -3.9375 L 5.71875 -3.9375 C 5.6875 -4.289062 5.585938 -4.59375 5.421875 -4.84375 C 5.265625 -5.09375 5.054688 -5.289062 4.796875 -5.4375 C 4.535156 -5.582031 4.242188 -5.65625 3.921875 -5.65625 C 3.617188 -5.65625 3.335938 -5.582031 3.078125 -5.4375 C 2.828125 -5.289062 2.617188 -5.09375 2.453125 -4.84375 C 2.296875 -4.59375 2.203125 -4.289062 2.171875 -3.9375 Z M 2.171875 -3.9375 "/></g></g></g><g fill="#000000" fill-opacity="1"><g transform="translate(171.266769, 127.380783)"><g/></g></g><g fill="#000000" fill-opacity="1"><g transform="translate(174.37967, 127.380783)"><g><path d="M 0.65625 -8.203125 L 0.65625 -9.59375 L 2.625 -9.59375 C 2.675781 -9.59375 2.738281 -9.566406 2.8125 -9.515625 C 2.894531 -9.472656 2.9375 -9.367188 2.9375 -9.203125 L 2.9375 -6.140625 C 2.9375 -6.015625 2.960938 -5.882812 3.015625 -5.75 C 3.066406 -5.625 3.140625 -5.515625 3.234375 -5.421875 C 3.335938 -5.335938 3.453125 -5.296875 3.578125 -5.296875 L 3.578125 -4.078125 C 3.398438 -4.046875 3.25 -3.945312 3.125 -3.78125 C 3 -3.625 2.9375 -3.429688 2.9375 -3.203125 L 2.9375 0.015625 C 2.9375 0.171875 2.894531 0.273438 2.8125 0.328125 C 2.738281 0.378906 2.675781 0.40625 2.625 0.40625 L 0.65625 0.40625 L 0.65625 -0.984375 L 1.359375 -0.984375 L 1.359375 -3.78125 C 1.359375 -3.9375 1.398438 -4.09375 1.484375 -4.25 C 1.566406 -4.414062 1.675781 -4.554688 1.8125 -4.671875 C 1.675781 -4.785156 1.566406 -4.914062 1.484375 -5.0625 C 1.398438 -5.21875 1.359375 -5.382812 1.359375 -5.5625 L 1.359375 -8.203125 Z M 0.65625 -8.203125 "/></g></g></g></svg>