<svg xmlns="http://www.w3.org/2000/svg" xmlns:xlink="http://www.w3.org/1999/xlink" width="338" zoomAndPan="magnify" viewBox="0 0 253.5 253.500006" height="338" preserveAspectRatio="xMidYMid meet" version="1.0"><defs><g/><clipPath id="f7d0390ebe"><path d="M 64.5 64.332031 L 188.753906 64.332031 L 188.753906 188.585938 L 64.5 188.585938 Z M 64.5 64.332031 " clip-rule="nonzero"/></clipPath></defs><g clip-path="url(#f7d0390ebe)"><path fill="#004aad" d="M 122 113.667969 L 90.738281 75.601562 L 90.957031 75.445312 C 100.042969 69.078125 110.679688 65.269531 121.730469 64.425781 L 122 64.40625 Z M 91.464844 75.699219 L 121.5 112.273438 L 121.5 64.945312 C 110.726562 65.8125 100.351562 69.527344 91.464844 75.699219 Z M 131.007812 118.480469 L 131.007812 64.40625 L 131.277344 64.425781 C 140.765625 65.148438 149.730469 67.960938 157.917969 72.785156 C 165.777344 77.414062 172.648438 83.851562 177.789062 91.402344 L 177.941406 91.621094 L 131.007812 118.484375 Z M 131.507812 64.945312 L 131.507812 117.621094 L 177.226562 91.457031 C 172.144531 84.0625 165.386719 77.757812 157.664062 73.210938 C 149.621094 68.476562 140.820312 65.695312 131.507812 64.945312 Z M 81.785156 169.203125 L 81.597656 169.011719 C 70.574219 157.429688 64.5 142.246094 64.5 126.25 C 64.5 117.65625 66.226562 109.335938 69.628906 101.515625 C 72.917969 93.96875 77.613281 87.234375 83.582031 81.507812 L 83.773438 81.320312 L 83.945312 81.527344 L 120.566406 126.117188 L 120.421875 126.277344 Z M 83.734375 82.054688 C 77.902344 87.695312 73.316406 94.308594 70.085938 101.714844 C 66.710938 109.46875 65 117.722656 65 126.25 C 65 142.027344 70.953125 157.007812 81.777344 168.46875 L 119.90625 126.101562 Z M 126.503906 188.253906 C 112.691406 188.253906 99.617188 183.808594 88.695312 175.394531 L 88.484375 175.230469 L 129.40625 129.78125 L 182.425781 99.4375 L 182.539062 99.683594 C 186.5 108.019531 188.507812 116.960938 188.507812 126.25 C 188.507812 142.816406 182.058594 158.386719 170.347656 170.097656 C 158.632812 181.808594 143.0625 188.257812 126.503906 188.257812 Z M 89.214844 175.164062 C 100.003906 183.402344 112.890625 187.757812 126.503906 187.757812 C 142.933594 187.757812 158.378906 181.359375 169.996094 169.742188 C 181.613281 158.125 188.007812 142.679688 188.007812 126.25 C 188.007812 117.125 186.054688 108.339844 182.203125 100.136719 L 129.683594 130.195312 L 89.210938 175.164062 Z M 89.214844 175.164062 " fill-opacity="1" fill-rule="nonzero"/></g><g fill="#000000" fill-opacity="1"><g transform="translate(226.303812, 155.313974)"><g><path d="M 2.59375 -4.453125 C 2.25 -4.453125 1.957031 -4.367188 1.71875 -4.203125 C 1.476562 -4.035156 1.296875 -3.804688 1.171875 -3.515625 C 1.054688 -3.222656 1 -2.882812 1 -2.5 C 1 -2.082031 1.054688 -1.722656 1.171875 -1.421875 C 1.296875 -1.117188 1.476562 -0.882812 1.71875 -0.71875 C 1.957031 -0.550781 2.242188 -0.46875 2.578125 -0.46875 C 2.960938 -0.46875 3.273438 -0.570312 3.515625 -0.78125 C 3.765625 -1 3.9375 -1.3125 4.03125 -1.71875 L 4.671875 -1.5625 C 4.597656 -1.21875 4.460938 -0.921875 4.265625 -0.671875 C 4.078125 -0.429688 3.835938 -0.242188 3.546875 -0.109375 C 3.265625 0.015625 2.945312 0.078125 2.59375 0.078125 C 2.125 0.078125 1.71875 -0.0195312 1.375 -0.21875 C 1.03125 -0.425781 0.765625 -0.722656 0.578125 -1.109375 C 0.398438 -1.503906 0.3125 -1.96875 0.3125 -2.5 C 0.3125 -3.007812 0.40625 -3.453125 0.59375 -3.828125 C 0.789062 -4.210938 1.0625 -4.503906 1.40625 -4.703125 C 1.757812 -4.910156 2.160156 -5.015625 2.609375 -5.015625 C 3.117188 -5.015625 3.539062 -4.890625 3.875 -4.640625 C 4.21875 -4.398438 4.457031 -4.046875 4.59375 -3.578125 L 3.953125 -3.421875 C 3.847656 -3.773438 3.679688 -4.035156 3.453125 -4.203125 C 3.234375 -4.367188 2.945312 -4.453125 2.59375 -4.453125 Z M 2.59375 -4.453125 "/></g></g></g><g fill="#000000" fill-opacity="1"><g transform="translate(231.231166, 155.313974)"><g><path d="M 0.25 -1.78125 C 0.25 -2.164062 0.316406 -2.5 0.453125 -2.78125 C 0.585938 -3.0625 0.78125 -3.273438 1.03125 -3.421875 C 1.289062 -3.578125 1.585938 -3.65625 1.921875 -3.65625 C 2.253906 -3.65625 2.546875 -3.582031 2.796875 -3.4375 C 3.046875 -3.289062 3.238281 -3.078125 3.375 -2.796875 C 3.519531 -2.515625 3.59375 -2.179688 3.59375 -1.796875 C 3.59375 -1.398438 3.519531 -1.0625 3.375 -0.78125 C 3.238281 -0.5 3.039062 -0.285156 2.78125 -0.140625 C 2.53125 0.00390625 2.242188 0.078125 1.921875 0.078125 C 1.585938 0.078125 1.296875 0.0078125 1.046875 -0.125 C 0.796875 -0.269531 0.597656 -0.484375 0.453125 -0.765625 C 0.316406 -1.046875 0.25 -1.382812 0.25 -1.78125 Z M 1.90625 -3.15625 C 1.707031 -3.15625 1.53125 -3.101562 1.375 -3 C 1.21875 -2.894531 1.09375 -2.738281 1 -2.53125 C 0.90625 -2.320312 0.859375 -2.070312 0.859375 -1.78125 C 0.859375 -1.488281 0.898438 -1.238281 0.984375 -1.03125 C 1.078125 -0.832031 1.203125 -0.675781 1.359375 -0.5625 C 1.523438 -0.457031 1.710938 -0.40625 1.921875 -0.40625 C 2.128906 -0.40625 2.3125 -0.457031 2.46875 -0.5625 C 2.632812 -0.675781 2.757812 -0.835938 2.84375 -1.046875 C 2.925781 -1.253906 2.96875 -1.503906 2.96875 -1.796875 C 2.96875 -2.085938 2.921875 -2.332031 2.828125 -2.53125 C 2.742188 -2.738281 2.617188 -2.894531 2.453125 -3 C 2.296875 -3.101562 2.113281 -3.15625 1.90625 -3.15625 Z M 1.90625 -3.15625 "/></g></g></g><g fill="#000000" fill-opacity="1"><g transform="translate(235.059446, 155.313974)"><g><path d="M 2.765625 0 L 2.765625 -2.328125 C 2.765625 -2.585938 2.695312 -2.785156 2.5625 -2.921875 C 2.4375 -3.054688 2.257812 -3.125 2.03125 -3.125 C 1.726562 -3.125 1.492188 -3.03125 1.328125 -2.84375 C 1.160156 -2.664062 1.078125 -2.378906 1.078125 -1.984375 L 1.078125 0 L 0.46875 0 L 0.46875 -3.5625 L 1.03125 -3.5625 L 1.03125 -3.078125 C 1.15625 -3.253906 1.3125 -3.394531 1.5 -3.5 C 1.6875 -3.601562 1.894531 -3.65625 2.125 -3.65625 C 2.539062 -3.65625 2.851562 -3.546875 3.0625 -3.328125 C 3.269531 -3.117188 3.375 -2.816406 3.375 -2.421875 L 3.375 0 Z M 2.765625 0 "/></g></g></g><g fill="#000000" fill-opacity="1"><g transform="translate(238.887727, 155.313974)"><g><path d="M 1.171875 -3.5625 L 1.84375 -3.5625 L 1.84375 -3.109375 L 1.171875 -3.109375 L 1.171875 -0.9375 C 1.171875 -0.800781 1.179688 -0.703125 1.203125 -0.640625 C 1.222656 -0.578125 1.253906 -0.535156 1.296875 -0.515625 C 1.347656 -0.492188 1.414062 -0.484375 1.5 -0.484375 C 1.582031 -0.484375 1.695312 -0.5 1.84375 -0.53125 L 1.921875 -0.015625 C 1.742188 0.0234375 1.570312 0.046875 1.40625 0.046875 C 1.1875 0.046875 1.015625 0.015625 0.890625 -0.046875 C 0.773438 -0.117188 0.691406 -0.21875 0.640625 -0.34375 C 0.585938 -0.457031 0.5625 -0.675781 0.5625 -1 L 0.5625 -3.109375 L 0.046875 -3.109375 L 0.046875 -3.5625 L 0.5625 -3.5625 L 0.5625 -4.390625 L 1.171875 -4.828125 Z M 1.171875 -3.5625 "/></g></g></g><g fill="#000000" fill-opacity="1"><g transform="translate(240.890934, 155.313974)"><g><path d="M 1.953125 -0.40625 C 2.179688 -0.40625 2.378906 -0.472656 2.546875 -0.609375 C 2.710938 -0.742188 2.828125 -0.925781 2.890625 -1.15625 L 3.484375 -1.0625 C 3.378906 -0.695312 3.1875 -0.414062 2.90625 -0.21875 C 2.632812 -0.0195312 2.304688 0.078125 1.921875 0.078125 C 1.578125 0.078125 1.28125 0.00390625 1.03125 -0.140625 C 0.78125 -0.285156 0.585938 -0.5 0.453125 -0.78125 C 0.316406 -1.0625 0.25 -1.382812 0.25 -1.75 C 0.25 -2.132812 0.3125 -2.46875 0.4375 -2.75 C 0.570312 -3.039062 0.765625 -3.265625 1.015625 -3.421875 C 1.273438 -3.578125 1.578125 -3.65625 1.921875 -3.65625 C 2.242188 -3.65625 2.523438 -3.578125 2.765625 -3.421875 C 3.015625 -3.273438 3.207031 -3.0625 3.34375 -2.78125 C 3.476562 -2.5 3.546875 -2.15625 3.546875 -1.75 L 3.546875 -1.625 L 0.875 -1.625 C 0.882812 -1.375 0.9375 -1.15625 1.03125 -0.96875 C 1.125 -0.789062 1.25 -0.648438 1.40625 -0.546875 C 1.5625 -0.453125 1.742188 -0.40625 1.953125 -0.40625 Z M 1.90625 -3.15625 C 1.726562 -3.15625 1.566406 -3.113281 1.421875 -3.03125 C 1.273438 -2.945312 1.15625 -2.828125 1.0625 -2.671875 C 0.96875 -2.515625 0.910156 -2.332031 0.890625 -2.125 L 2.90625 -2.125 C 2.863281 -2.457031 2.753906 -2.710938 2.578125 -2.890625 C 2.410156 -3.066406 2.1875 -3.15625 1.90625 -3.15625 Z M 1.90625 -3.15625 "/></g></g></g><g fill="#000000" fill-opacity="1"><g transform="translate(244.662074, 155.313974)"><g><path d="M 2.765625 0 L 2.765625 -2.328125 C 2.765625 -2.585938 2.695312 -2.785156 2.5625 -2.921875 C 2.4375 -3.054688 2.257812 -3.125 2.03125 -3.125 C 1.726562 -3.125 1.492188 -3.03125 1.328125 -2.84375 C 1.160156 -2.664062 1.078125 -2.378906 1.078125 -1.984375 L 1.078125 0 L 0.46875 0 L 0.46875 -3.5625 L 1.03125 -3.5625 L 1.03125 -3.078125 C 1.15625 -3.253906 1.3125 -3.394531 1.5 -3.5 C 1.6875 -3.601562 1.894531 -3.65625 2.125 -3.65625 C 2.539062 -3.65625 2.851562 -3.546875 3.0625 -3.328125 C 3.269531 -3.117188 3.375 -2.816406 3.375 -2.421875 L 3.375 0 Z M 2.765625 0 "/></g></g></g><g fill="#000000" fill-opacity="1"><g transform="translate(248.490354, 155.313974)"><g><path d="M 1.171875 -3.5625 L 1.84375 -3.5625 L 1.84375 -3.109375 L 1.171875 -3.109375 L 1.171875 -0.9375 C 1.171875 -0.800781 1.179688 -0.703125 1.203125 -0.640625 C 1.222656 -0.578125 1.253906 -0.535156 1.296875 -0.515625 C 1.347656 -0.492188 1.414062 -0.484375 1.5 -0.484375 C 1.582031 -0.484375 1.695312 -0.5 1.84375 -0.53125 L 1.921875 -0.015625 C 1.742188 0.0234375 1.570312 0.046875 1.40625 0.046875 C 1.1875 0.046875 1.015625 0.015625 0.890625 -0.046875 C 0.773438 -0.117188 0.691406 -0.21875 0.640625 -0.34375 C 0.585938 -0.457031 0.5625 -0.675781 0.5625 -1 L 0.5625 -3.109375 L 0.046875 -3.109375 L 0.046875 -3.5625 L 0.5625 -3.5625 L 0.5625 -4.390625 L 1.171875 -4.828125 Z M 1.171875 -3.5625 "/></g></g></g><g fill="#000000" fill-opacity="1"><g transform="translate(229.39637, 92.129577)"><g><path d="M 4.484375 -2.5 C 4.484375 -1.957031 4.394531 -1.5 4.21875 -1.125 C 4.039062 -0.757812 3.785156 -0.476562 3.453125 -0.28125 C 3.128906 -0.09375 2.738281 0 2.28125 0 L 0.53125 0 L 0.53125 -4.9375 L 2.34375 -4.9375 C 2.789062 -4.9375 3.171875 -4.84375 3.484375 -4.65625 C 3.804688 -4.46875 4.050781 -4.191406 4.21875 -3.828125 C 4.394531 -3.460938 4.484375 -3.019531 4.484375 -2.5 Z M 3.796875 -2.5 C 3.796875 -3.144531 3.664062 -3.613281 3.40625 -3.90625 C 3.144531 -4.195312 2.757812 -4.34375 2.25 -4.34375 L 1.1875 -4.34375 L 1.1875 -0.578125 L 2.234375 -0.578125 C 2.765625 -0.578125 3.15625 -0.734375 3.40625 -1.046875 C 3.664062 -1.359375 3.796875 -1.84375 3.796875 -2.5 Z M 3.796875 -2.5 "/></g></g></g><g fill="#000000" fill-opacity="1"><g transform="translate(234.185922, 92.129577)"><g><path d="M 1.953125 -0.40625 C 2.179688 -0.40625 2.378906 -0.472656 2.546875 -0.609375 C 2.710938 -0.742188 2.828125 -0.925781 2.890625 -1.15625 L 3.484375 -1.0625 C 3.378906 -0.695312 3.1875 -0.414062 2.90625 -0.21875 C 2.632812 -0.0195312 2.304688 0.078125 1.921875 0.078125 C 1.578125 0.078125 1.28125 0.00390625 1.03125 -0.140625 C 0.78125 -0.285156 0.585938 -0.5 0.453125 -0.78125 C 0.316406 -1.0625 0.25 -1.382812 0.25 -1.75 C 0.25 -2.132812 0.3125 -2.46875 0.4375 -2.75 C 0.570312 -3.039062 0.765625 -3.265625 1.015625 -3.421875 C 1.273438 -3.578125 1.578125 -3.65625 1.921875 -3.65625 C 2.242188 -3.65625 2.523438 -3.578125 2.765625 -3.421875 C 3.015625 -3.273438 3.207031 -3.0625 3.34375 -2.78125 C 3.476562 -2.5 3.546875 -2.15625 3.546875 -1.75 L 3.546875 -1.625 L 0.875 -1.625 C 0.882812 -1.375 0.9375 -1.15625 1.03125 -0.96875 C 1.125 -0.789062 1.25 -0.648438 1.40625 -0.546875 C 1.5625 -0.453125 1.742188 -0.40625 1.953125 -0.40625 Z M 1.90625 -3.15625 C 1.726562 -3.15625 1.566406 -3.113281 1.421875 -3.03125 C 1.273438 -2.945312 1.15625 -2.828125 1.0625 -2.671875 C 0.96875 -2.515625 0.910156 -2.332031 0.890625 -2.125 L 2.90625 -2.125 C 2.863281 -2.457031 2.753906 -2.710938 2.578125 -2.890625 C 2.410156 -3.066406 2.1875 -3.15625 1.90625 -3.15625 Z M 1.90625 -3.15625 "/></g></g></g><g fill="#000000" fill-opacity="1"><g transform="translate(237.957061, 92.129577)"><g><path d="M 1.5625 -3.15625 C 1.351562 -3.15625 1.1875 -3.113281 1.0625 -3.03125 C 0.9375 -2.945312 0.875 -2.832031 0.875 -2.6875 C 0.875 -2.582031 0.898438 -2.492188 0.953125 -2.421875 C 1.003906 -2.359375 1.085938 -2.304688 1.203125 -2.265625 C 1.316406 -2.222656 1.476562 -2.1875 1.6875 -2.15625 C 2 -2.101562 2.25 -2.03125 2.4375 -1.9375 C 2.632812 -1.851562 2.785156 -1.738281 2.890625 -1.59375 C 2.992188 -1.457031 3.046875 -1.273438 3.046875 -1.046875 C 3.046875 -0.835938 2.988281 -0.644531 2.875 -0.46875 C 2.757812 -0.289062 2.597656 -0.15625 2.390625 -0.0625 C 2.179688 0.03125 1.941406 0.078125 1.671875 0.078125 C 0.828125 0.078125 0.335938 -0.300781 0.203125 -1.0625 L 0.8125 -1.15625 C 0.851562 -0.90625 0.941406 -0.71875 1.078125 -0.59375 C 1.210938 -0.46875 1.410156 -0.40625 1.671875 -0.40625 C 1.910156 -0.40625 2.09375 -0.457031 2.21875 -0.5625 C 2.351562 -0.664062 2.421875 -0.804688 2.421875 -0.984375 C 2.421875 -1.140625 2.347656 -1.265625 2.203125 -1.359375 C 2.054688 -1.453125 1.847656 -1.515625 1.578125 -1.546875 C 1.160156 -1.617188 0.84375 -1.734375 0.625 -1.890625 C 0.40625 -2.054688 0.296875 -2.300781 0.296875 -2.625 C 0.296875 -2.820312 0.347656 -3 0.453125 -3.15625 C 0.554688 -3.3125 0.703125 -3.429688 0.890625 -3.515625 C 1.085938 -3.609375 1.3125 -3.65625 1.5625 -3.65625 C 1.945312 -3.65625 2.253906 -3.570312 2.484375 -3.40625 C 2.722656 -3.238281 2.867188 -2.988281 2.921875 -2.65625 L 2.328125 -2.578125 C 2.296875 -2.753906 2.210938 -2.894531 2.078125 -3 C 1.953125 -3.101562 1.78125 -3.15625 1.5625 -3.15625 Z M 1.5625 -3.15625 "/></g></g></g><g fill="#000000" fill-opacity="1"><g transform="translate(241.234123, 92.129577)"><g><path d="M 1.078125 -4.25 L 0.46875 -4.25 L 0.46875 -4.9375 L 1.078125 -4.9375 Z M 1.078125 0 L 0.46875 0 L 0.46875 -3.5625 L 1.078125 -3.5625 Z M 1.078125 0 "/></g></g></g><g fill="#000000" fill-opacity="1"><g transform="translate(242.773501, 92.129577)"><g><path d="M 2.859375 -3.5625 L 3.4375 -3.5625 L 3.4375 -0.296875 C 3.4375 0.285156 3.304688 0.722656 3.046875 1.015625 C 2.785156 1.304688 2.378906 1.453125 1.828125 1.453125 C 1.390625 1.453125 1.046875 1.347656 0.796875 1.140625 C 0.554688 0.941406 0.425781 0.660156 0.40625 0.296875 L 1 0.390625 C 1.019531 0.578125 1.097656 0.71875 1.234375 0.8125 C 1.367188 0.90625 1.5625 0.953125 1.8125 0.953125 C 2.15625 0.953125 2.410156 0.863281 2.578125 0.6875 C 2.742188 0.507812 2.828125 0.148438 2.828125 -0.390625 L 2.828125 -0.46875 C 2.566406 -0.15625 2.222656 0 1.796875 0 C 1.492188 0 1.222656 -0.078125 0.984375 -0.234375 C 0.742188 -0.390625 0.5625 -0.601562 0.4375 -0.875 C 0.3125 -1.144531 0.25 -1.457031 0.25 -1.8125 C 0.25 -2.175781 0.304688 -2.492188 0.421875 -2.765625 C 0.535156 -3.046875 0.707031 -3.265625 0.9375 -3.421875 C 1.164062 -3.578125 1.441406 -3.65625 1.765625 -3.65625 C 2.015625 -3.65625 2.222656 -3.609375 2.390625 -3.515625 C 2.566406 -3.429688 2.722656 -3.304688 2.859375 -3.140625 Z M 1.8125 -3.15625 C 1.625 -3.15625 1.457031 -3.101562 1.3125 -3 C 1.164062 -2.894531 1.050781 -2.742188 0.96875 -2.546875 C 0.894531 -2.347656 0.859375 -2.113281 0.859375 -1.84375 C 0.859375 -1.5625 0.894531 -1.316406 0.96875 -1.109375 C 1.050781 -0.910156 1.164062 -0.757812 1.3125 -0.65625 C 1.46875 -0.550781 1.648438 -0.5 1.859375 -0.5 C 2.066406 -0.5 2.242188 -0.550781 2.390625 -0.65625 C 2.546875 -0.757812 2.660156 -0.910156 2.734375 -1.109375 C 2.816406 -1.316406 2.859375 -1.554688 2.859375 -1.828125 C 2.859375 -2.097656 2.816406 -2.332031 2.734375 -2.53125 C 2.648438 -2.738281 2.53125 -2.894531 2.375 -3 C 2.21875 -3.101562 2.03125 -3.15625 1.8125 -3.15625 Z M 1.8125 -3.15625 "/></g></g></g><g fill="#000000" fill-opacity="1"><g transform="translate(246.669003, 92.129577)"><g><path d="M 2.765625 0 L 2.765625 -2.328125 C 2.765625 -2.585938 2.695312 -2.785156 2.5625 -2.921875 C 2.4375 -3.054688 2.257812 -3.125 2.03125 -3.125 C 1.726562 -3.125 1.492188 -3.03125 1.328125 -2.84375 C 1.160156 -2.664062 1.078125 -2.378906 1.078125 -1.984375 L 1.078125 0 L 0.46875 0 L 0.46875 -3.5625 L 1.03125 -3.5625 L 1.03125 -3.078125 C 1.15625 -3.253906 1.3125 -3.394531 1.5 -3.5 C 1.6875 -3.601562 1.894531 -3.65625 2.125 -3.65625 C 2.539062 -3.65625 2.851562 -3.546875 3.0625 -3.328125 C 3.269531 -3.117188 3.375 -2.816406 3.375 -2.421875 L 3.375 0 Z M 2.765625 0 "/></g></g></g><g fill="#000000" fill-opacity="1"><g transform="translate(2.499036, 82.485012)"><g><path d="M 3.953125 -3.671875 C 3.953125 -3.441406 3.890625 -3.234375 3.765625 -3.046875 C 3.648438 -2.867188 3.488281 -2.726562 3.28125 -2.625 C 3.570312 -2.550781 3.796875 -2.410156 3.953125 -2.203125 C 4.117188 -1.992188 4.203125 -1.738281 4.203125 -1.4375 C 4.203125 -1.132812 4.128906 -0.875 3.984375 -0.65625 C 3.847656 -0.445312 3.648438 -0.285156 3.390625 -0.171875 C 3.128906 -0.0546875 2.820312 0 2.46875 0 L 0.53125 0 L 0.53125 -4.9375 L 2.359375 -4.9375 C 2.710938 -4.9375 3.007812 -4.878906 3.25 -4.765625 C 3.488281 -4.660156 3.664062 -4.515625 3.78125 -4.328125 C 3.894531 -4.140625 3.953125 -3.921875 3.953125 -3.671875 Z M 3.296875 -3.65625 C 3.296875 -3.875 3.210938 -4.039062 3.046875 -4.15625 C 2.878906 -4.28125 2.601562 -4.34375 2.21875 -4.34375 L 1.1875 -4.34375 L 1.1875 -2.859375 L 2.296875 -2.859375 C 2.628906 -2.859375 2.878906 -2.921875 3.046875 -3.046875 C 3.210938 -3.171875 3.296875 -3.375 3.296875 -3.65625 Z M 3.515625 -1.4375 C 3.515625 -1.726562 3.410156 -1.941406 3.203125 -2.078125 C 3.003906 -2.210938 2.707031 -2.28125 2.3125 -2.28125 L 1.1875 -2.28125 L 1.1875 -0.578125 L 2.390625 -0.578125 C 2.785156 -0.578125 3.070312 -0.644531 3.25 -0.78125 C 3.425781 -0.925781 3.515625 -1.144531 3.515625 -1.4375 Z M 3.515625 -1.4375 "/></g></g></g><g fill="#000000" fill-opacity="1"><g transform="translate(7.006256, 82.485012)"><g><path d="M 1.875 -3.03125 C 1.613281 -3.03125 1.414062 -2.929688 1.28125 -2.734375 C 1.144531 -2.535156 1.078125 -2.257812 1.078125 -1.90625 L 1.078125 0 L 0.46875 0 L 0.46875 -3.5625 L 1.03125 -3.5625 L 1.03125 -3.03125 C 1.164062 -3.257812 1.300781 -3.421875 1.4375 -3.515625 C 1.570312 -3.609375 1.738281 -3.65625 1.9375 -3.65625 C 2.039062 -3.65625 2.140625 -3.640625 2.234375 -3.609375 C 2.328125 -3.585938 2.421875 -3.546875 2.515625 -3.484375 L 2.3125 -2.921875 C 2.175781 -2.992188 2.03125 -3.03125 1.875 -3.03125 Z M 1.875 -3.03125 "/></g></g></g><g fill="#000000" fill-opacity="1"><g transform="translate(9.490102, 82.485012)"><g><path d="M 3.34375 0 L 2.703125 0 C 2.671875 -0.0703125 2.644531 -0.128906 2.625 -0.171875 C 2.613281 -0.222656 2.597656 -0.3125 2.578125 -0.4375 C 2.410156 -0.257812 2.226562 -0.128906 2.03125 -0.046875 C 1.84375 0.0351562 1.625 0.078125 1.375 0.078125 C 1.144531 0.078125 0.941406 0.0351562 0.765625 -0.046875 C 0.597656 -0.128906 0.46875 -0.25 0.375 -0.40625 C 0.289062 -0.5625 0.25 -0.742188 0.25 -0.953125 C 0.25 -1.253906 0.347656 -1.492188 0.546875 -1.671875 C 0.742188 -1.859375 1.070312 -1.988281 1.53125 -2.0625 C 2 -2.125 2.335938 -2.191406 2.546875 -2.265625 L 2.546875 -2.359375 C 2.546875 -2.554688 2.519531 -2.710938 2.46875 -2.828125 C 2.414062 -2.941406 2.332031 -3.023438 2.21875 -3.078125 C 2.101562 -3.128906 1.953125 -3.15625 1.765625 -3.15625 C 1.515625 -3.15625 1.316406 -3.097656 1.171875 -2.984375 C 1.035156 -2.878906 0.945312 -2.707031 0.90625 -2.46875 L 0.3125 -2.5625 C 0.382812 -2.925781 0.546875 -3.195312 0.796875 -3.375 C 1.046875 -3.5625 1.378906 -3.65625 1.796875 -3.65625 C 2.109375 -3.65625 2.363281 -3.613281 2.5625 -3.53125 C 2.757812 -3.445312 2.90625 -3.316406 3 -3.140625 C 3.101562 -2.960938 3.15625 -2.71875 3.15625 -2.40625 L 3.15625 -1.125 C 3.15625 -0.90625 3.15625 -0.734375 3.15625 -0.609375 C 3.164062 -0.492188 3.179688 -0.390625 3.203125 -0.296875 C 3.234375 -0.210938 3.28125 -0.113281 3.34375 0 Z M 1.546875 -1.546875 C 1.304688 -1.503906 1.128906 -1.429688 1.015625 -1.328125 C 0.910156 -1.234375 0.859375 -1.109375 0.859375 -0.953125 C 0.859375 -0.773438 0.910156 -0.632812 1.015625 -0.53125 C 1.128906 -0.4375 1.289062 -0.390625 1.5 -0.390625 C 1.675781 -0.390625 1.863281 -0.445312 2.0625 -0.5625 C 2.1875 -0.632812 2.28125 -0.71875 2.34375 -0.8125 C 2.414062 -0.90625 2.46875 -1.015625 2.5 -1.140625 C 2.53125 -1.273438 2.546875 -1.445312 2.546875 -1.65625 L 2.546875 -1.78125 C 2.492188 -1.757812 2.367188 -1.722656 2.171875 -1.671875 C 1.984375 -1.628906 1.773438 -1.585938 1.546875 -1.546875 Z M 1.546875 -1.546875 "/></g></g></g><g fill="#000000" fill-opacity="1"><g transform="translate(13.089828, 82.485012)"><g><path d="M 2.765625 0 L 2.765625 -2.328125 C 2.765625 -2.585938 2.695312 -2.785156 2.5625 -2.921875 C 2.4375 -3.054688 2.257812 -3.125 2.03125 -3.125 C 1.726562 -3.125 1.492188 -3.03125 1.328125 -2.84375 C 1.160156 -2.664062 1.078125 -2.378906 1.078125 -1.984375 L 1.078125 0 L 0.46875 0 L 0.46875 -3.5625 L 1.03125 -3.5625 L 1.03125 -3.078125 C 1.15625 -3.253906 1.3125 -3.394531 1.5 -3.5 C 1.6875 -3.601562 1.894531 -3.65625 2.125 -3.65625 C 2.539062 -3.65625 2.851562 -3.546875 3.0625 -3.328125 C 3.269531 -3.117188 3.375 -2.816406 3.375 -2.421875 L 3.375 0 Z M 2.765625 0 "/></g></g></g><g fill="#000000" fill-opacity="1"><g transform="translate(16.918109, 82.485012)"><g><path d="M 3.46875 0 L 2.90625 0 L 2.90625 -0.453125 L 2.890625 -0.453125 C 2.785156 -0.285156 2.632812 -0.15625 2.4375 -0.0625 C 2.25 0.03125 2.050781 0.078125 1.84375 0.078125 C 1.53125 0.078125 1.25 0 1 -0.15625 C 0.757812 -0.3125 0.570312 -0.53125 0.4375 -0.8125 C 0.3125 -1.09375 0.25 -1.414062 0.25 -1.78125 C 0.25 -2.164062 0.3125 -2.5 0.4375 -2.78125 C 0.5625 -3.0625 0.738281 -3.273438 0.96875 -3.421875 C 1.195312 -3.578125 1.46875 -3.65625 1.78125 -3.65625 C 2.007812 -3.65625 2.207031 -3.613281 2.375 -3.53125 C 2.550781 -3.445312 2.710938 -3.320312 2.859375 -3.15625 L 2.859375 -4.9375 L 3.46875 -4.9375 Z M 1.84375 -3.15625 C 1.632812 -3.15625 1.457031 -3.097656 1.3125 -2.984375 C 1.164062 -2.867188 1.050781 -2.707031 0.96875 -2.5 C 0.894531 -2.300781 0.859375 -2.0625 0.859375 -1.78125 C 0.859375 -1.488281 0.898438 -1.238281 0.984375 -1.03125 C 1.078125 -0.832031 1.195312 -0.675781 1.34375 -0.5625 C 1.5 -0.457031 1.675781 -0.40625 1.875 -0.40625 C 2.09375 -0.40625 2.28125 -0.457031 2.4375 -0.5625 C 2.59375 -0.675781 2.707031 -0.832031 2.78125 -1.03125 C 2.863281 -1.226562 2.90625 -1.460938 2.90625 -1.734375 C 2.90625 -2.023438 2.859375 -2.273438 2.765625 -2.484375 C 2.679688 -2.703125 2.554688 -2.867188 2.390625 -2.984375 C 2.234375 -3.097656 2.050781 -3.15625 1.84375 -3.15625 Z M 1.84375 -3.15625 "/></g></g></g><g fill="#000000" fill-opacity="1"><g transform="translate(2.499036, 128.613589)"><g><path d="M 3.640625 -4.34375 L 1.1875 -4.34375 L 1.1875 -2.84375 L 3.453125 -2.84375 L 3.453125 -2.25 L 1.1875 -2.25 L 1.1875 -0.578125 L 3.75 -0.578125 L 3.75 0 L 0.53125 0 L 0.53125 -4.9375 L 3.640625 -4.9375 Z M 3.640625 -4.34375 "/></g></g></g><g fill="#000000" fill-opacity="1"><g transform="translate(6.609648, 128.613589)"><g><path d="M 2.765625 0 L 2.765625 -2.328125 C 2.765625 -2.585938 2.695312 -2.785156 2.5625 -2.921875 C 2.4375 -3.054688 2.257812 -3.125 2.03125 -3.125 C 1.726562 -3.125 1.492188 -3.03125 1.328125 -2.84375 C 1.160156 -2.664062 1.078125 -2.378906 1.078125 -1.984375 L 1.078125 0 L 0.46875 0 L 0.46875 -3.5625 L 1.03125 -3.5625 L 1.03125 -3.078125 C 1.15625 -3.253906 1.3125 -3.394531 1.5 -3.5 C 1.6875 -3.601562 1.894531 -3.65625 2.125 -3.65625 C 2.539062 -3.65625 2.851562 -3.546875 3.0625 -3.328125 C 3.269531 -3.117188 3.375 -2.816406 3.375 -2.421875 L 3.375 0 Z M 2.765625 0 "/></g></g></g><g fill="#000000" fill-opacity="1"><g transform="translate(10.437928, 128.613589)"><g><path d="M 2.859375 -3.5625 L 3.4375 -3.5625 L 3.4375 -0.296875 C 3.4375 0.285156 3.304688 0.722656 3.046875 1.015625 C 2.785156 1.304688 2.378906 1.453125 1.828125 1.453125 C 1.390625 1.453125 1.046875 1.347656 0.796875 1.140625 C 0.554688 0.941406 0.425781 0.660156 0.40625 0.296875 L 1 0.390625 C 1.019531 0.578125 1.097656 0.71875 1.234375 0.8125 C 1.367188 0.90625 1.5625 0.953125 1.8125 0.953125 C 2.15625 0.953125 2.410156 0.863281 2.578125 0.6875 C 2.742188 0.507812 2.828125 0.148438 2.828125 -0.390625 L 2.828125 -0.46875 C 2.566406 -0.15625 2.222656 0 1.796875 0 C 1.492188 0 1.222656 -0.078125 0.984375 -0.234375 C 0.742188 -0.390625 0.5625 -0.601562 0.4375 -0.875 C 0.3125 -1.144531 0.25 -1.457031 0.25 -1.8125 C 0.25 -2.175781 0.304688 -2.492188 0.421875 -2.765625 C 0.535156 -3.046875 0.707031 -3.265625 0.9375 -3.421875 C 1.164062 -3.578125 1.441406 -3.65625 1.765625 -3.65625 C 2.015625 -3.65625 2.222656 -3.609375 2.390625 -3.515625 C 2.566406 -3.429688 2.722656 -3.304688 2.859375 -3.140625 Z M 1.8125 -3.15625 C 1.625 -3.15625 1.457031 -3.101562 1.3125 -3 C 1.164062 -2.894531 1.050781 -2.742188 0.96875 -2.546875 C 0.894531 -2.347656 0.859375 -2.113281 0.859375 -1.84375 C 0.859375 -1.5625 0.894531 -1.316406 0.96875 -1.109375 C 1.050781 -0.910156 1.164062 -0.757812 1.3125 -0.65625 C 1.46875 -0.550781 1.648438 -0.5 1.859375 -0.5 C 2.066406 -0.5 2.242188 -0.550781 2.390625 -0.65625 C 2.546875 -0.757812 2.660156 -0.910156 2.734375 -1.109375 C 2.816406 -1.316406 2.859375 -1.554688 2.859375 -1.828125 C 2.859375 -2.097656 2.816406 -2.332031 2.734375 -2.53125 C 2.648438 -2.738281 2.53125 -2.894531 2.375 -3 C 2.21875 -3.101562 2.03125 -3.15625 1.8125 -3.15625 Z M 1.8125 -3.15625 "/></g></g></g><g fill="#000000" fill-opacity="1"><g transform="translate(14.33343, 128.613589)"><g><path d="M 3.34375 0 L 2.703125 0 C 2.671875 -0.0703125 2.644531 -0.128906 2.625 -0.171875 C 2.613281 -0.222656 2.597656 -0.3125 2.578125 -0.4375 C 2.410156 -0.257812 2.226562 -0.128906 2.03125 -0.046875 C 1.84375 0.0351562 1.625 0.078125 1.375 0.078125 C 1.144531 0.078125 0.941406 0.0351562 0.765625 -0.046875 C 0.597656 -0.128906 0.46875 -0.25 0.375 -0.40625 C 0.289062 -0.5625 0.25 -0.742188 0.25 -0.953125 C 0.25 -1.253906 0.347656 -1.492188 0.546875 -1.671875 C 0.742188 -1.859375 1.070312 -1.988281 1.53125 -2.0625 C 2 -2.125 2.335938 -2.191406 2.546875 -2.265625 L 2.546875 -2.359375 C 2.546875 -2.554688 2.519531 -2.710938 2.46875 -2.828125 C 2.414062 -2.941406 2.332031 -3.023438 2.21875 -3.078125 C 2.101562 -3.128906 1.953125 -3.15625 1.765625 -3.15625 C 1.515625 -3.15625 1.316406 -3.097656 1.171875 -2.984375 C 1.035156 -2.878906 0.945312 -2.707031 0.90625 -2.46875 L 0.3125 -2.5625 C 0.382812 -2.925781 0.546875 -3.195312 0.796875 -3.375 C 1.046875 -3.5625 1.378906 -3.65625 1.796875 -3.65625 C 2.109375 -3.65625 2.363281 -3.613281 2.5625 -3.53125 C 2.757812 -3.445312 2.90625 -3.316406 3 -3.140625 C 3.101562 -2.960938 3.15625 -2.71875 3.15625 -2.40625 L 3.15625 -1.125 C 3.15625 -0.90625 3.15625 -0.734375 3.15625 -0.609375 C 3.164062 -0.492188 3.179688 -0.390625 3.203125 -0.296875 C 3.234375 -0.210938 3.28125 -0.113281 3.34375 0 Z M 1.546875 -1.546875 C 1.304688 -1.503906 1.128906 -1.429688 1.015625 -1.328125 C 0.910156 -1.234375 0.859375 -1.109375 0.859375 -0.953125 C 0.859375 -0.773438 0.910156 -0.632812 1.015625 -0.53125 C 1.128906 -0.4375 1.289062 -0.390625 1.5 -0.390625 C 1.675781 -0.390625 1.863281 -0.445312 2.0625 -0.5625 C 2.1875 -0.632812 2.28125 -0.71875 2.34375 -0.8125 C 2.414062 -0.90625 2.46875 -1.015625 2.5 -1.140625 C 2.53125 -1.273438 2.546875 -1.445312 2.546875 -1.65625 L 2.546875 -1.78125 C 2.492188 -1.757812 2.367188 -1.722656 2.171875 -1.671875 C 1.984375 -1.628906 1.773438 -1.585938 1.546875 -1.546875 Z M 1.546875 -1.546875 "/></g></g></g><g fill="#000000" fill-opacity="1"><g transform="translate(17.933157, 128.613589)"><g><path d="M 2.859375 -3.5625 L 3.4375 -3.5625 L 3.4375 -0.296875 C 3.4375 0.285156 3.304688 0.722656 3.046875 1.015625 C 2.785156 1.304688 2.378906 1.453125 1.828125 1.453125 C 1.390625 1.453125 1.046875 1.347656 0.796875 1.140625 C 0.554688 0.941406 0.425781 0.660156 0.40625 0.296875 L 1 0.390625 C 1.019531 0.578125 1.097656 0.71875 1.234375 0.8125 C 1.367188 0.90625 1.5625 0.953125 1.8125 0.953125 C 2.15625 0.953125 2.410156 0.863281 2.578125 0.6875 C 2.742188 0.507812 2.828125 0.148438 2.828125 -0.390625 L 2.828125 -0.46875 C 2.566406 -0.15625 2.222656 0 1.796875 0 C 1.492188 0 1.222656 -0.078125 0.984375 -0.234375 C 0.742188 -0.390625 0.5625 -0.601562 0.4375 -0.875 C 0.3125 -1.144531 0.25 -1.457031 0.25 -1.8125 C 0.25 -2.175781 0.304688 -2.492188 0.421875 -2.765625 C 0.535156 -3.046875 0.707031 -3.265625 0.9375 -3.421875 C 1.164062 -3.578125 1.441406 -3.65625 1.765625 -3.65625 C 2.015625 -3.65625 2.222656 -3.609375 2.390625 -3.515625 C 2.566406 -3.429688 2.722656 -3.304688 2.859375 -3.140625 Z M 1.8125 -3.15625 C 1.625 -3.15625 1.457031 -3.101562 1.3125 -3 C 1.164062 -2.894531 1.050781 -2.742188 0.96875 -2.546875 C 0.894531 -2.347656 0.859375 -2.113281 0.859375 -1.84375 C 0.859375 -1.5625 0.894531 -1.316406 0.96875 -1.109375 C 1.050781 -0.910156 1.164062 -0.757812 1.3125 -0.65625 C 1.46875 -0.550781 1.648438 -0.5 1.859375 -0.5 C 2.066406 -0.5 2.242188 -0.550781 2.390625 -0.65625 C 2.546875 -0.757812 2.660156 -0.910156 2.734375 -1.109375 C 2.816406 -1.316406 2.859375 -1.554688 2.859375 -1.828125 C 2.859375 -2.097656 2.816406 -2.332031 2.734375 -2.53125 C 2.648438 -2.738281 2.53125 -2.894531 2.375 -3 C 2.21875 -3.101562 2.03125 -3.15625 1.8125 -3.15625 Z M 1.8125 -3.15625 "/></g></g></g><g fill="#000000" fill-opacity="1"><g transform="translate(21.828659, 128.613589)"><g><path d="M 1.953125 -0.40625 C 2.179688 -0.40625 2.378906 -0.472656 2.546875 -0.609375 C 2.710938 -0.742188 2.828125 -0.925781 2.890625 -1.15625 L 3.484375 -1.0625 C 3.378906 -0.695312 3.1875 -0.414062 2.90625 -0.21875 C 2.632812 -0.0195312 2.304688 0.078125 1.921875 0.078125 C 1.578125 0.078125 1.28125 0.00390625 1.03125 -0.140625 C 0.78125 -0.285156 0.585938 -0.5 0.453125 -0.78125 C 0.316406 -1.0625 0.25 -1.382812 0.25 -1.75 C 0.25 -2.132812 0.3125 -2.46875 0.4375 -2.75 C 0.570312 -3.039062 0.765625 -3.265625 1.015625 -3.421875 C 1.273438 -3.578125 1.578125 -3.65625 1.921875 -3.65625 C 2.242188 -3.65625 2.523438 -3.578125 2.765625 -3.421875 C 3.015625 -3.273438 3.207031 -3.0625 3.34375 -2.78125 C 3.476562 -2.5 3.546875 -2.15625 3.546875 -1.75 L 3.546875 -1.625 L 0.875 -1.625 C 0.882812 -1.375 0.9375 -1.15625 1.03125 -0.96875 C 1.125 -0.789062 1.25 -0.648438 1.40625 -0.546875 C 1.5625 -0.453125 1.742188 -0.40625 1.953125 -0.40625 Z M 1.90625 -3.15625 C 1.726562 -3.15625 1.566406 -3.113281 1.421875 -3.03125 C 1.273438 -2.945312 1.15625 -2.828125 1.0625 -2.671875 C 0.96875 -2.515625 0.910156 -2.332031 0.890625 -2.125 L 2.90625 -2.125 C 2.863281 -2.457031 2.753906 -2.710938 2.578125 -2.890625 C 2.410156 -3.066406 2.1875 -3.15625 1.90625 -3.15625 Z M 1.90625 -3.15625 "/></g></g></g><g fill="#000000" fill-opacity="1"><g transform="translate(25.599799, 128.613589)"><g><path d="M 4.15625 -3.65625 C 4.539062 -3.65625 4.828125 -3.550781 5.015625 -3.34375 C 5.210938 -3.144531 5.3125 -2.851562 5.3125 -2.46875 L 5.3125 0 L 4.71875 0 L 4.71875 -2.296875 C 4.71875 -2.597656 4.660156 -2.8125 4.546875 -2.9375 C 4.441406 -3.0625 4.28125 -3.125 4.0625 -3.125 C 3.894531 -3.125 3.742188 -3.082031 3.609375 -3 C 3.484375 -2.925781 3.382812 -2.800781 3.3125 -2.625 C 3.238281 -2.457031 3.203125 -2.242188 3.203125 -1.984375 L 3.203125 0 L 2.59375 0 L 2.59375 -2.34375 C 2.59375 -2.613281 2.535156 -2.8125 2.421875 -2.9375 C 2.316406 -3.0625 2.15625 -3.125 1.9375 -3.125 C 1.78125 -3.125 1.632812 -3.085938 1.5 -3.015625 C 1.375 -2.941406 1.269531 -2.816406 1.1875 -2.640625 C 1.113281 -2.472656 1.078125 -2.253906 1.078125 -1.984375 L 1.078125 0 L 0.46875 0 L 0.46875 -3.5625 L 1.03125 -3.5625 L 1.03125 -3.078125 C 1.28125 -3.460938 1.613281 -3.65625 2.03125 -3.65625 C 2.320312 -3.65625 2.550781 -3.601562 2.71875 -3.5 C 2.894531 -3.394531 3.023438 -3.238281 3.109375 -3.03125 C 3.253906 -3.257812 3.410156 -3.421875 3.578125 -3.515625 C 3.742188 -3.609375 3.9375 -3.65625 4.15625 -3.65625 Z M 4.15625 -3.65625 "/></g></g></g><g fill="#000000" fill-opacity="1"><g transform="translate(31.367424, 128.613589)"><g><path d="M 1.953125 -0.40625 C 2.179688 -0.40625 2.378906 -0.472656 2.546875 -0.609375 C 2.710938 -0.742188 2.828125 -0.925781 2.890625 -1.15625 L 3.484375 -1.0625 C 3.378906 -0.695312 3.1875 -0.414062 2.90625 -0.21875 C 2.632812 -0.0195312 2.304688 0.078125 1.921875 0.078125 C 1.578125 0.078125 1.28125 0.00390625 1.03125 -0.140625 C 0.78125 -0.285156 0.585938 -0.5 0.453125 -0.78125 C 0.316406 -1.0625 0.25 -1.382812 0.25 -1.75 C 0.25 -2.132812 0.3125 -2.46875 0.4375 -2.75 C 0.570312 -3.039062 0.765625 -3.265625 1.015625 -3.421875 C 1.273438 -3.578125 1.578125 -3.65625 1.921875 -3.65625 C 2.242188 -3.65625 2.523438 -3.578125 2.765625 -3.421875 C 3.015625 -3.273438 3.207031 -3.0625 3.34375 -2.78125 C 3.476562 -2.5 3.546875 -2.15625 3.546875 -1.75 L 3.546875 -1.625 L 0.875 -1.625 C 0.882812 -1.375 0.9375 -1.15625 1.03125 -0.96875 C 1.125 -0.789062 1.25 -0.648438 1.40625 -0.546875 C 1.5625 -0.453125 1.742188 -0.40625 1.953125 -0.40625 Z M 1.90625 -3.15625 C 1.726562 -3.15625 1.566406 -3.113281 1.421875 -3.03125 C 1.273438 -2.945312 1.15625 -2.828125 1.0625 -2.671875 C 0.96875 -2.515625 0.910156 -2.332031 0.890625 -2.125 L 2.90625 -2.125 C 2.863281 -2.457031 2.753906 -2.710938 2.578125 -2.890625 C 2.410156 -3.066406 2.1875 -3.15625 1.90625 -3.15625 Z M 1.90625 -3.15625 "/></g></g></g><g fill="#000000" fill-opacity="1"><g transform="translate(35.138563, 128.613589)"><g><path d="M 2.765625 0 L 2.765625 -2.328125 C 2.765625 -2.585938 2.695312 -2.785156 2.5625 -2.921875 C 2.4375 -3.054688 2.257812 -3.125 2.03125 -3.125 C 1.726562 -3.125 1.492188 -3.03125 1.328125 -2.84375 C 1.160156 -2.664062 1.078125 -2.378906 1.078125 -1.984375 L 1.078125 0 L 0.46875 0 L 0.46875 -3.5625 L 1.03125 -3.5625 L 1.03125 -3.078125 C 1.15625 -3.253906 1.3125 -3.394531 1.5 -3.5 C 1.6875 -3.601562 1.894531 -3.65625 2.125 -3.65625 C 2.539062 -3.65625 2.851562 -3.546875 3.0625 -3.328125 C 3.269531 -3.117188 3.375 -2.816406 3.375 -2.421875 L 3.375 0 Z M 2.765625 0 "/></g></g></g><g fill="#000000" fill-opacity="1"><g transform="translate(38.966844, 128.613589)"><g><path d="M 1.171875 -3.5625 L 1.84375 -3.5625 L 1.84375 -3.109375 L 1.171875 -3.109375 L 1.171875 -0.9375 C 1.171875 -0.800781 1.179688 -0.703125 1.203125 -0.640625 C 1.222656 -0.578125 1.253906 -0.535156 1.296875 -0.515625 C 1.347656 -0.492188 1.414062 -0.484375 1.5 -0.484375 C 1.582031 -0.484375 1.695312 -0.5 1.84375 -0.53125 L 1.921875 -0.015625 C 1.742188 0.0234375 1.570312 0.046875 1.40625 0.046875 C 1.1875 0.046875 1.015625 0.015625 0.890625 -0.046875 C 0.773438 -0.117188 0.691406 -0.21875 0.640625 -0.34375 C 0.585938 -0.457031 0.5625 -0.675781 0.5625 -1 L 0.5625 -3.109375 L 0.046875 -3.109375 L 0.046875 -3.5625 L 0.5625 -3.5625 L 0.5625 -4.390625 L 1.171875 -4.828125 Z M 1.171875 -3.5625 "/></g></g></g><path stroke-linecap="butt" transform="matrix(0.748524, 0, 0, 0.748524, 29.034066, 80.301698)" fill="none" stroke-linejoin="miter" d="M 0.00145655 0.499761 L 106.012227 0.499761 " stroke="#000000" stroke-width="1" stroke-opacity="1" stroke-miterlimit="4"/><path stroke-linecap="round" transform="matrix(0.748524, 0, 0, 0.748524, 29.034066, 80.301698)" fill-opacity="1" fill="#000000" fill-rule="nonzero" stroke-linejoin="round" d="M 109.263419 0.499761 C 109.263419 1.32952 108.590218 1.997501 107.76046 1.997501 C 106.93592 1.997501 106.26272 1.32952 106.26272 0.499761 C 106.26272 -0.329997 106.93592 -0.997979 107.76046 -0.997979 C 108.590218 -0.997979 109.263419 -0.329997 109.263419 0.499761 " stroke="#000000" stroke-width="1" stroke-opacity="1" stroke-miterlimit="4"/><path stroke-linecap="butt" transform="matrix(0.748524, 0, 0, 0.748524, 50.01465, 126.126238)" fill="none" stroke-linejoin="miter" d="M 0.00130191 0.499332 L 49.797244 0.499332 " stroke="#000000" stroke-width="1" stroke-opacity="1" stroke-miterlimit="4"/><path stroke-linecap="round" transform="matrix(0.748524, 0, 0, 0.748524, 50.01465, 126.126238)" fill-opacity="1" fill="#000000" fill-rule="nonzero" stroke-linejoin="round" d="M 53.043217 0.499332 C 53.043217 1.329091 52.375236 2.002291 51.545477 2.002291 C 50.715719 2.002291 50.047737 1.329091 50.047737 0.499332 C 50.047737 -0.330426 50.715719 -0.998408 51.545477 -0.998408 C 52.375236 -0.998408 53.043217 -0.330426 53.043217 0.499332 " stroke="#000000" stroke-width="1" stroke-opacity="1" stroke-miterlimit="4"/><path stroke-linecap="butt" transform="matrix(-0.748524, 0.00000000130642, -0.00000000130642, -0.748524, 220.124867, 90.390749)" fill="none" stroke-linejoin="miter" d="M -0.000178118 0.501152 L 91.080159 0.501152 " stroke="#000000" stroke-width="1" stroke-opacity="1" stroke-miterlimit="4"/><path stroke-linecap="round" transform="matrix(-0.748524, 0.00000000130642, -0.00000000130642, -0.748524, 220.124867, 90.390749)" fill-opacity="1" fill="#000000" fill-rule="nonzero" stroke-linejoin="round" d="M 94.331351 0.501152 C 94.331351 1.330911 93.658151 1.998893 92.828392 1.998893 C 91.998634 1.998893 91.330652 1.330911 91.330652 0.501152 C 91.330652 -0.328606 91.998634 -1.001806 92.828392 -1.001806 C 93.658151 -1.001806 94.331351 -0.328606 94.331351 0.501152 " stroke="#000000" stroke-width="1" stroke-opacity="1" stroke-miterlimit="4"/><path stroke-linecap="butt" transform="matrix(-0.748524, 0.00000000130642, -0.00000000130642, -0.748524, 216.876174, 153.575139)" fill="none" stroke-linejoin="miter" d="M 0.00156801 0.502216 L 91.076687 0.502216 " stroke="#000000" stroke-width="1" stroke-opacity="1" stroke-miterlimit="4"/><path stroke-linecap="round" transform="matrix(-0.748524, 0.00000000130642, -0.00000000130642, -0.748524, 216.876174, 153.575139)" fill-opacity="1" fill="#000000" fill-rule="nonzero" stroke-linejoin="round" d="M 94.327879 0.502216 C 94.327879 1.326756 93.659897 1.999956 92.830139 1.999956 C 92.00038 1.999956 91.32718 1.326756 91.32718 0.502216 C 91.32718 -0.327542 92.00038 -1.000742 92.830139 -1.000742 C 93.659897 -1.000742 94.327879 -0.327542 94.327879 0.502216 " stroke="#000000" stroke-width="1" stroke-opacity="1" stroke-miterlimit="4"/></svg>