<svg xmlns="http://www.w3.org/2000/svg" xmlns:xlink="http://www.w3.org/1999/xlink" width="500" zoomAndPan="magnify" viewBox="0 0 375 374.999991" height="500" preserveAspectRatio="xMidYMid meet" version="1.0"><defs><g/><clipPath id="6ec9e60b93"><path d="M 128 193 L 149 193 L 149 212.003906 L 128 212.003906 Z M 128 193 " clip-rule="nonzero"/></clipPath><clipPath id="b2339cf58a"><path d="M 127.082031 92 L 180 92 L 180 192 L 127.082031 192 Z M 127.082031 92 " clip-rule="nonzero"/></clipPath><clipPath id="e553a79a69"><path d="M 175 85.253906 L 196 85.253906 L 196 108 L 175 108 Z M 175 85.253906 " clip-rule="nonzero"/></clipPath><clipPath id="0b1211292f"><path d="M 244 130 L 259.082031 130 L 259.082031 142 L 244 142 Z M 244 130 " clip-rule="nonzero"/></clipPath></defs><path fill="#008fd6" d="M 234 192.09375 C 236.246094 189.425781 238.199219 186.546875 239.863281 183.457031 L 235.269531 178.652344 L 227.269531 184.25 Z M 234 192.09375 " fill-opacity="1" fill-rule="nonzero"/><path fill="#008fd6" d="M 207.785156 182.136719 L 219.085938 188.632812 C 219.667969 188.132812 220.222656 187.605469 220.773438 187.074219 C 221.804688 186.097656 222.78125 185.097656 223.707031 184.066406 L 216.710938 175.878906 Z M 207.785156 182.136719 " fill-opacity="1" fill-rule="nonzero"/><path fill="#008fd6" d="M 206.597656 161.226562 C 205.199219 163.734375 203.484375 166.03125 201.476562 168.0625 C 199.894531 169.675781 198.125 171.101562 196.195312 172.289062 L 205.488281 177.621094 L 214.96875 170.996094 Z M 206.597656 161.226562 " fill-opacity="1" fill-rule="nonzero"/><path fill="#008fd6" d="M 214.414062 163.917969 L 214.203125 164.367188 L 223.175781 174.824219 L 231.070312 169.277344 L 221.25 159.007812 Z M 214.414062 163.917969 " fill-opacity="1" fill-rule="nonzero"/><path fill="#008fd6" d="M 200.183594 152.328125 C 199.867188 154.4375 199.363281 156.445312 198.703125 158.375 L 203.007812 155.285156 Z M 200.183594 152.328125 " fill-opacity="1" fill-rule="nonzero"/><path fill="#008fd6" d="M 202.058594 184.777344 L 192.578125 179.339844 C 191.417969 179.972656 190.203125 180.527344 188.910156 181.003906 C 187.433594 181.558594 185.902344 182.03125 184.34375 182.402344 L 194.71875 189.902344 Z M 202.058594 184.777344 " fill-opacity="1" fill-rule="nonzero"/><path fill="#008fd6" d="M 210.742188 201.917969 C 213.9375 200.171875 216.921875 198.21875 219.667969 195.976562 L 208.207031 189.398438 L 200.710938 194.65625 Z M 210.742188 201.917969 " fill-opacity="1" fill-rule="nonzero"/><path fill="#008fd6" d="M 189.648438 188.289062 L 178.429688 180.183594 C 176.210938 180.554688 173.914062 180.738281 171.539062 180.738281 L 166.417969 180.738281 L 161.402344 193.253906 L 176.105469 197.769531 Z M 189.648438 188.289062 " fill-opacity="1" fill-rule="nonzero"/><path fill="#008fd6" d="M 189.675781 202.707031 C 192.472656 202.046875 195.167969 201.203125 197.78125 200.171875 C 199.574219 199.460938 201.292969 198.695312 202.980469 197.875 L 193.160156 190.773438 L 180.25 199.804688 Z M 189.675781 202.707031 " fill-opacity="1" fill-rule="nonzero"/><path fill="#008fd6" d="M 179.671875 208.703125 C 184.027344 208.703125 188.222656 208.359375 192.210938 207.644531 L 184.554688 205.296875 Z M 179.671875 208.703125 " fill-opacity="1" fill-rule="nonzero"/><path fill="#008fd6" d="M 159.238281 210.761719 L 170.191406 210.761719 L 176.027344 206.667969 L 162.535156 202.523438 Z M 159.238281 210.761719 " fill-opacity="1" fill-rule="nonzero"/><path fill="#008fd6" d="M 183.867188 113.40625 C 185.054688 113.722656 186.21875 114.117188 187.351562 114.566406 C 189.175781 115.28125 190.863281 116.152344 192.449219 117.101562 L 193.082031 116.835938 L 193.425781 109.234375 L 183.761719 113.113281 Z M 183.867188 113.40625 " fill-opacity="1" fill-rule="nonzero"/><path fill="#008fd6" d="M 147.488281 204.476562 L 159 204.476562 L 162.511719 195.683594 L 152.1875 192.515625 Z M 147.488281 204.476562 " fill-opacity="1" fill-rule="nonzero"/><g clip-path="url(#6ec9e60b93)"><path fill="#008fd6" d="M 128.664062 193.519531 L 128.664062 212.003906 L 143.265625 212.003906 L 148.175781 199.511719 Z M 128.664062 193.519531 " fill-opacity="1" fill-rule="nonzero"/></g><path fill="#008fd6" d="M 153.984375 177.859375 L 164.332031 181.03125 L 169.136719 169.042969 L 157.441406 169.042969 Z M 153.984375 177.859375 " fill-opacity="1" fill-rule="nonzero"/><g clip-path="url(#b2339cf58a)"><path fill="#008fd6" d="M 170.773438 92.78125 L 127.082031 92.78125 L 127.082031 185.519531 L 147.25 191.722656 L 151.949219 179.734375 L 151.949219 115.226562 L 171.167969 115.226562 C 173.519531 115.226562 175.789062 115.410156 177.953125 115.78125 L 179.167969 115.28125 Z M 170.773438 92.78125 " fill-opacity="1" fill-rule="nonzero"/></g><g clip-path="url(#e553a79a69)"><path fill="#008fd6" d="M 195.167969 88.265625 C 189.226562 86.390625 182.8125 85.390625 175.949219 85.257812 L 184.132812 107.09375 L 194.535156 102.894531 Z M 195.167969 88.265625 " fill-opacity="1" fill-rule="nonzero"/></g><path fill="#008fd6" d="M 203.21875 94.234375 C 202.003906 93.679688 200.738281 93.152344 199.46875 92.648438 C 198.890625 92.414062 198.28125 92.203125 197.675781 91.988281 L 197.066406 105.273438 L 206.546875 101.441406 Z M 203.21875 94.234375 " fill-opacity="1" fill-rule="nonzero"/><path fill="#008fd6" d="M 216.023438 95.078125 C 214.042969 93.707031 211.984375 92.464844 209.792969 91.328125 L 212.246094 96.609375 Z M 216.023438 95.078125 " fill-opacity="1" fill-rule="nonzero"/><path fill="#008fd6" d="M 211.269531 102.65625 L 200.921875 106.804688 L 200.578125 114.410156 L 214.121094 108.808594 Z M 211.269531 102.65625 " fill-opacity="1" fill-rule="nonzero"/><path fill="#008fd6" d="M 226.820312 104.636719 C 226.53125 104.347656 226.214844 104.058594 225.921875 103.742188 C 224.417969 102.316406 222.835938 100.96875 221.171875 99.726562 L 216.394531 101.65625 L 219.21875 107.808594 Z M 226.820312 104.636719 " fill-opacity="1" fill-rule="nonzero"/><path fill="#008fd6" d="M 206.28125 124.203125 C 208.421875 126.792969 210.164062 129.777344 211.480469 133.101562 C 211.613281 133.445312 211.746094 133.816406 211.878906 134.160156 L 222.625 127.824219 L 219.296875 120.640625 Z M 206.28125 124.203125 " fill-opacity="1" fill-rule="nonzero"/><path fill="#008fd6" d="M 212.300781 112.796875 L 197.914062 118.765625 L 197.886719 119.398438 C 199.046875 120.269531 200.15625 121.246094 201.160156 122.277344 L 201.554688 122.699219 L 215.125 118.949219 Z M 212.300781 112.796875 " fill-opacity="1" fill-rule="nonzero"/><path fill="#008fd6" d="M 235.269531 112.71875 C 233.660156 110.316406 231.863281 108.042969 229.882812 105.90625 L 221.699219 109.285156 L 224.628906 115.648438 Z M 235.269531 112.71875 " fill-opacity="1" fill-rule="nonzero"/><path fill="#008fd6" d="M 242.871094 120.457031 C 242.210938 119.136719 241.472656 117.839844 240.707031 116.574219 L 229.804688 119.582031 L 232.917969 126.34375 Z M 242.871094 120.457031 " fill-opacity="1" fill-rule="nonzero"/><path fill="#008fd6" d="M 207.523438 133.683594 L 196.59375 140.152344 C 197.382812 142.820312 197.859375 145.621094 198.042969 148.578125 L 210.082031 139.28125 Z M 207.523438 133.683594 " fill-opacity="1" fill-rule="nonzero"/><path fill="#008fd6" d="M 242.398438 135.242188 C 242.078125 134.398438 241.761719 133.550781 241.394531 132.734375 C 241.15625 132.179688 240.917969 131.625 240.65625 131.097656 L 230.703125 136.984375 L 233.183594 142.34375 Z M 242.398438 135.242188 " fill-opacity="1" fill-rule="nonzero"/><path fill="#008fd6" d="M 225.050781 134.449219 L 212.300781 144.300781 L 212.300781 144.90625 C 212.300781 146.226562 212.246094 147.519531 212.117188 148.789062 L 216.128906 152.988281 L 229.25 143.558594 Z M 225.050781 134.449219 " fill-opacity="1" fill-rule="nonzero"/><g clip-path="url(#0b1211292f)"><path fill="#008fd6" d="M 253.722656 141.210938 C 255.859375 138.042969 257.65625 134.765625 259.082031 131.335938 L 247.675781 130.726562 L 244.929688 140.445312 Z M 253.722656 141.210938 " fill-opacity="1" fill-rule="nonzero"/></g><path fill="#008fd6" d="M 243.292969 171.917969 L 247.253906 176.089844 C 247.78125 175.035156 248.285156 173.953125 248.734375 172.871094 C 249.605469 170.808594 250.34375 168.722656 250.949219 166.585938 Z M 243.292969 171.917969 " fill-opacity="1" fill-rule="nonzero"/><path fill="#008fd6" d="M 235.691406 145.117188 L 223.046875 154.203125 L 232.894531 164.527344 L 241.761719 158.292969 Z M 235.691406 145.117188 " fill-opacity="1" fill-rule="nonzero"/><path fill="#008fd6" d="M 249.761719 149.027344 L 249.550781 148.761719 C 248.546875 147.46875 247.492188 146.253906 246.410156 145.066406 L 244.164062 152.882812 L 256.152344 158.980469 C 254.410156 155.523438 252.269531 152.222656 249.761719 149.027344 " fill-opacity="1" fill-rule="nonzero"/><g fill="#0c2950" fill-opacity="1"><g transform="translate(139.979631, 263.056027)"><g><path d="M 3.21875 -29.90625 L 15.9375 -29.90625 C 19.445312 -29.90625 22.210938 -29.632812 24.234375 -29.09375 C 26.265625 -28.5625 27.753906 -27.632812 28.703125 -26.3125 C 29.660156 -24.988281 30.140625 -23.160156 30.140625 -20.828125 L 30.140625 -8.65625 C 30.140625 -6.382812 29.691406 -4.625 28.796875 -3.375 C 27.910156 -2.132812 26.453125 -1.257812 24.421875 -0.75 C 22.390625 -0.25 19.578125 0 15.984375 0 L 3.21875 0 Z M 15.671875 -5.109375 C 17.628906 -5.109375 19.109375 -5.191406 20.109375 -5.359375 C 21.109375 -5.535156 21.832031 -5.867188 22.28125 -6.359375 C 22.726562 -6.847656 22.953125 -7.613281 22.953125 -8.65625 L 22.953125 -20.96875 C 22.953125 -22.375 22.390625 -23.363281 21.265625 -23.9375 C 20.140625 -24.507812 18.347656 -24.796875 15.890625 -24.796875 L 10.40625 -24.796875 L 10.40625 -5.109375 Z M 15.671875 -5.109375 "/></g></g></g><g fill="#0c2950" fill-opacity="1"><g transform="translate(174.080367, 263.056027)"><g><path d="M 3.21875 -29.90625 L 26.03125 -29.90625 L 26.03125 -24.796875 L 10.40625 -24.796875 L 10.40625 -17.921875 L 24.515625 -17.921875 L 24.515625 -12.8125 L 10.40625 -12.8125 L 10.40625 -5.109375 L 26.5 -5.109375 L 26.5 0 L 3.21875 0 Z M 3.21875 -29.90625 "/></g></g></g><g fill="#0c2950" fill-opacity="1"><g transform="translate(203.572901, 263.056027)"><g><path d="M 3.21875 -29.90625 L 10.40625 -29.90625 L 10.40625 0 L 3.21875 0 Z M 10.59375 -15.84375 L 21.796875 -29.90625 L 30.234375 -29.90625 L 18.890625 -15.984375 L 31.46875 0 L 22.71875 0 Z M 10.59375 -15.84375 "/></g></g></g><g fill="#008fd6" fill-opacity="1"><g transform="translate(103.389808, 286.097021)"><g><path d="M 1.203125 -8.0625 L 2.359375 -8.0625 L 2.359375 0 L 1.203125 0 Z M 1.203125 -8.0625 "/></g></g></g><g fill="#008fd6" fill-opacity="1"><g transform="translate(115.267474, 286.097021)"><g><path d="M 8.140625 -8.0625 L 8.140625 0 L 7.203125 0 L 2.359375 -6.015625 L 2.359375 0 L 1.203125 0 L 1.203125 -8.0625 L 2.15625 -8.0625 L 6.984375 -2.046875 L 6.984375 -8.0625 Z M 8.140625 -8.0625 "/></g></g></g><g fill="#008fd6" fill-opacity="1"><g transform="translate(132.928461, 286.097021)"><g><path d="M 8.140625 -8.0625 L 8.140625 0 L 7.203125 0 L 2.359375 -6.015625 L 2.359375 0 L 1.203125 0 L 1.203125 -8.0625 L 2.15625 -8.0625 L 6.984375 -2.046875 L 6.984375 -8.0625 Z M 8.140625 -8.0625 "/></g></g></g><g fill="#008fd6" fill-opacity="1"><g transform="translate(150.589449, 286.097021)"><g><path d="M 4.84375 0.09375 C 4.03125 0.09375 3.296875 -0.0820312 2.640625 -0.4375 C 1.992188 -0.800781 1.484375 -1.296875 1.109375 -1.921875 C 0.734375 -2.554688 0.546875 -3.257812 0.546875 -4.03125 C 0.546875 -4.800781 0.734375 -5.5 1.109375 -6.125 C 1.484375 -6.757812 1.992188 -7.253906 2.640625 -7.609375 C 3.296875 -7.972656 4.03125 -8.15625 4.84375 -8.15625 C 5.65625 -8.15625 6.382812 -7.972656 7.03125 -7.609375 C 7.6875 -7.253906 8.195312 -6.765625 8.5625 -6.140625 C 8.9375 -5.515625 9.125 -4.8125 9.125 -4.03125 C 9.125 -3.25 8.9375 -2.546875 8.5625 -1.921875 C 8.195312 -1.296875 7.6875 -0.800781 7.03125 -0.4375 C 6.382812 -0.0820312 5.65625 0.09375 4.84375 0.09375 Z M 4.84375 -0.9375 C 5.4375 -0.9375 5.96875 -1.066406 6.4375 -1.328125 C 6.914062 -1.597656 7.289062 -1.96875 7.5625 -2.4375 C 7.832031 -2.914062 7.96875 -3.445312 7.96875 -4.03125 C 7.96875 -4.613281 7.832031 -5.140625 7.5625 -5.609375 C 7.289062 -6.085938 6.914062 -6.457031 6.4375 -6.71875 C 5.96875 -6.988281 5.4375 -7.125 4.84375 -7.125 C 4.257812 -7.125 3.722656 -6.988281 3.234375 -6.71875 C 2.753906 -6.457031 2.378906 -6.085938 2.109375 -5.609375 C 1.835938 -5.140625 1.703125 -4.613281 1.703125 -4.03125 C 1.703125 -3.445312 1.835938 -2.914062 2.109375 -2.4375 C 2.378906 -1.96875 2.753906 -1.597656 3.234375 -1.328125 C 3.722656 -1.066406 4.257812 -0.9375 4.84375 -0.9375 Z M 4.84375 -0.9375 "/></g></g></g><g fill="#008fd6" fill-opacity="1"><g transform="translate(168.573024, 286.097021)"><g><path d="M 8.203125 -8.0625 L 4.671875 0 L 3.53125 0 L -0.015625 -8.0625 L 1.234375 -8.0625 L 4.140625 -1.4375 L 7.0625 -8.0625 Z M 8.203125 -8.0625 "/></g></g></g><g fill="#008fd6" fill-opacity="1"><g transform="translate(185.081965, 286.097021)"><g><path d="M 6.34375 -2.015625 L 2.0625 -2.015625 L 1.171875 0 L -0.015625 0 L 3.640625 -8.0625 L 4.78125 -8.0625 L 8.4375 0 L 7.234375 0 Z M 5.9375 -2.9375 L 4.203125 -6.890625 L 2.46875 -2.9375 Z M 5.9375 -2.9375 "/></g></g></g><g fill="#008fd6" fill-opacity="1"><g transform="translate(201.821306, 286.097021)"><g><path d="M 2.8125 -7.0625 L 0.046875 -7.0625 L 0.046875 -8.0625 L 6.71875 -8.0625 L 6.71875 -7.0625 L 3.953125 -7.0625 L 3.953125 0 L 2.8125 0 Z M 2.8125 -7.0625 "/></g></g></g><g fill="#008fd6" fill-opacity="1"><g transform="translate(216.890169, 286.097021)"><g><path d="M 1.203125 -8.0625 L 2.359375 -8.0625 L 2.359375 0 L 1.203125 0 Z M 1.203125 -8.0625 "/></g></g></g><g fill="#008fd6" fill-opacity="1"><g transform="translate(228.767835, 286.097021)"><g><path d="M 4.84375 0.09375 C 4.03125 0.09375 3.296875 -0.0820312 2.640625 -0.4375 C 1.992188 -0.800781 1.484375 -1.296875 1.109375 -1.921875 C 0.734375 -2.554688 0.546875 -3.257812 0.546875 -4.03125 C 0.546875 -4.800781 0.734375 -5.5 1.109375 -6.125 C 1.484375 -6.757812 1.992188 -7.253906 2.640625 -7.609375 C 3.296875 -7.972656 4.03125 -8.15625 4.84375 -8.15625 C 5.65625 -8.15625 6.382812 -7.972656 7.03125 -7.609375 C 7.6875 -7.253906 8.195312 -6.765625 8.5625 -6.140625 C 8.9375 -5.515625 9.125 -4.8125 9.125 -4.03125 C 9.125 -3.25 8.9375 -2.546875 8.5625 -1.921875 C 8.195312 -1.296875 7.6875 -0.800781 7.03125 -0.4375 C 6.382812 -0.0820312 5.65625 0.09375 4.84375 0.09375 Z M 4.84375 -0.9375 C 5.4375 -0.9375 5.96875 -1.066406 6.4375 -1.328125 C 6.914062 -1.597656 7.289062 -1.96875 7.5625 -2.4375 C 7.832031 -2.914062 7.96875 -3.445312 7.96875 -4.03125 C 7.96875 -4.613281 7.832031 -5.140625 7.5625 -5.609375 C 7.289062 -6.085938 6.914062 -6.457031 6.4375 -6.71875 C 5.96875 -6.988281 5.4375 -7.125 4.84375 -7.125 C 4.257812 -7.125 3.722656 -6.988281 3.234375 -6.71875 C 2.753906 -6.457031 2.378906 -6.085938 2.109375 -5.609375 C 1.835938 -5.140625 1.703125 -4.613281 1.703125 -4.03125 C 1.703125 -3.445312 1.835938 -2.914062 2.109375 -2.4375 C 2.378906 -1.96875 2.753906 -1.597656 3.234375 -1.328125 C 3.722656 -1.066406 4.257812 -0.9375 4.84375 -0.9375 Z M 4.84375 -0.9375 "/></g></g></g><g fill="#008fd6" fill-opacity="1"><g transform="translate(246.751402, 286.097021)"><g><path d="M 8.140625 -8.0625 L 8.140625 0 L 7.203125 0 L 2.359375 -6.015625 L 2.359375 0 L 1.203125 0 L 1.203125 -8.0625 L 2.15625 -8.0625 L 6.984375 -2.046875 L 6.984375 -8.0625 Z M 8.140625 -8.0625 "/></g></g></g><g fill="#008fd6" fill-opacity="1"><g transform="translate(264.412382, 286.097021)"><g><path d="M 3.5625 0.09375 C 2.957031 0.09375 2.367188 0 1.796875 -0.1875 C 1.234375 -0.375 0.789062 -0.617188 0.46875 -0.921875 L 0.890625 -1.8125 C 1.203125 -1.539062 1.597656 -1.316406 2.078125 -1.140625 C 2.554688 -0.972656 3.050781 -0.890625 3.5625 -0.890625 C 4.226562 -0.890625 4.722656 -1 5.046875 -1.21875 C 5.378906 -1.445312 5.546875 -1.75 5.546875 -2.125 C 5.546875 -2.40625 5.457031 -2.628906 5.28125 -2.796875 C 5.101562 -2.972656 4.878906 -3.109375 4.609375 -3.203125 C 4.347656 -3.296875 3.972656 -3.398438 3.484375 -3.515625 C 2.878906 -3.660156 2.390625 -3.804688 2.015625 -3.953125 C 1.648438 -4.097656 1.332031 -4.320312 1.0625 -4.625 C 0.800781 -4.925781 0.671875 -5.332031 0.671875 -5.84375 C 0.671875 -6.28125 0.78125 -6.671875 1 -7.015625 C 1.226562 -7.359375 1.570312 -7.632812 2.03125 -7.84375 C 2.5 -8.050781 3.070312 -8.15625 3.75 -8.15625 C 4.226562 -8.15625 4.695312 -8.09375 5.15625 -7.96875 C 5.613281 -7.84375 6.007812 -7.664062 6.34375 -7.4375 L 5.96875 -6.515625 C 5.625 -6.734375 5.257812 -6.894531 4.875 -7 C 4.5 -7.113281 4.125 -7.171875 3.75 -7.171875 C 3.101562 -7.171875 2.613281 -7.050781 2.28125 -6.8125 C 1.957031 -6.570312 1.796875 -6.265625 1.796875 -5.890625 C 1.796875 -5.617188 1.882812 -5.394531 2.0625 -5.21875 C 2.25 -5.050781 2.476562 -4.914062 2.75 -4.8125 C 3.03125 -4.71875 3.40625 -4.617188 3.875 -4.515625 C 4.476562 -4.367188 4.960938 -4.222656 5.328125 -4.078125 C 5.703125 -3.929688 6.019531 -3.707031 6.28125 -3.40625 C 6.539062 -3.101562 6.671875 -2.703125 6.671875 -2.203125 C 6.671875 -1.773438 6.554688 -1.382812 6.328125 -1.03125 C 6.097656 -0.6875 5.75 -0.410156 5.28125 -0.203125 C 4.8125 -0.00390625 4.238281 0.09375 3.5625 0.09375 Z M 3.5625 0.09375 "/></g></g></g></svg>