<svg xmlns="http://www.w3.org/2000/svg" xmlns:xlink="http://www.w3.org/1999/xlink" width="500" zoomAndPan="magnify" viewBox="0 0 375 374.999991" height="500" preserveAspectRatio="xMidYMid meet" version="1.0"><defs><clipPath id="86c349f283"><path d="M 38 291 L 84 291 L 84 334.488281 L 38 334.488281 Z M 38 291 " clip-rule="nonzero"/></clipPath><clipPath id="37dbb5098a"><path d="M 34.363281 57 L 156 57 L 156 288 L 34.363281 288 Z M 34.363281 57 " clip-rule="nonzero"/></clipPath><clipPath id="2b97855c14"><path d="M 147 40.488281 L 193 40.488281 L 193 92 L 147 92 Z M 147 40.488281 " clip-rule="nonzero"/></clipPath><clipPath id="70038c46e3"><path d="M 307 145 L 340.363281 145 L 340.363281 171 L 307 171 Z M 307 145 " clip-rule="nonzero"/></clipPath></defs><path fill="#008fd6" d="M 282.222656 288.304688 C 287.425781 282.117188 291.953125 275.441406 295.808594 268.273438 L 285.160156 257.128906 L 266.617188 270.113281 Z M 282.222656 288.304688 " fill-opacity="1" fill-rule="nonzero"/><path fill="#008fd6" d="M 221.449219 265.210938 L 247.644531 280.28125 C 248.992188 279.117188 250.277344 277.890625 251.5625 276.667969 C 253.949219 274.398438 256.210938 272.074219 258.355469 269.683594 L 242.136719 250.695312 Z M 221.449219 265.210938 " fill-opacity="1" fill-rule="nonzero"/><path fill="#008fd6" d="M 218.695312 216.703125 C 215.453125 222.523438 211.476562 227.851562 206.824219 232.566406 C 203.152344 236.304688 199.050781 239.609375 194.585938 242.367188 L 216.125 254.738281 L 238.097656 239.367188 Z M 218.695312 216.703125 " fill-opacity="1" fill-rule="nonzero"/><path fill="#008fd6" d="M 236.8125 222.949219 L 236.324219 223.992188 L 257.128906 248.246094 L 275.429688 235.382812 L 252.664062 211.558594 Z M 236.8125 222.949219 " fill-opacity="1" fill-rule="nonzero"/><path fill="#008fd6" d="M 203.824219 196.0625 C 203.089844 200.960938 201.929688 205.617188 200.398438 210.089844 L 210.375 202.921875 Z M 203.824219 196.0625 " fill-opacity="1" fill-rule="nonzero"/><path fill="#008fd6" d="M 208.171875 271.335938 L 186.199219 258.71875 C 183.507812 260.191406 180.691406 261.476562 177.691406 262.578125 C 174.265625 263.867188 170.714844 264.96875 167.105469 265.824219 L 191.15625 283.21875 Z M 208.171875 271.335938 " fill-opacity="1" fill-rule="nonzero"/><path fill="#008fd6" d="M 228.304688 311.089844 C 235.710938 307.046875 242.625 302.511719 248.992188 297.308594 L 222.429688 282.054688 L 205.050781 294.246094 Z M 228.304688 311.089844 " fill-opacity="1" fill-rule="nonzero"/><path fill="#008fd6" d="M 179.40625 279.484375 L 153.394531 260.679688 C 148.253906 261.539062 142.929688 261.964844 137.421875 261.964844 L 125.550781 261.964844 L 113.921875 291 L 148.011719 301.472656 Z M 179.40625 279.484375 " fill-opacity="1" fill-rule="nonzero"/><path fill="#008fd6" d="M 179.46875 312.925781 C 185.953125 311.394531 192.195312 309.433594 198.257812 307.046875 C 202.417969 305.390625 206.394531 303.617188 210.3125 301.71875 L 187.546875 285.242188 L 157.621094 306.1875 Z M 179.46875 312.925781 " fill-opacity="1" fill-rule="nonzero"/><path fill="#008fd6" d="M 156.273438 326.828125 C 166.371094 326.828125 176.101562 326.03125 185.34375 324.378906 L 167.59375 318.929688 Z M 156.273438 326.828125 " fill-opacity="1" fill-rule="nonzero"/><path fill="#008fd6" d="M 108.902344 331.605469 L 134.300781 331.605469 L 147.828125 322.113281 L 116.554688 312.496094 Z M 108.902344 331.605469 " fill-opacity="1" fill-rule="nonzero"/><path fill="#008fd6" d="M 166.003906 105.78125 C 168.757812 106.515625 171.449219 107.433594 174.082031 108.476562 C 178.304688 110.128906 182.222656 112.152344 185.894531 114.355469 L 187.363281 113.742188 L 188.15625 96.105469 L 165.757812 105.109375 Z M 166.003906 105.78125 " fill-opacity="1" fill-rule="nonzero"/><path fill="#008fd6" d="M 81.671875 317.03125 L 108.351562 317.03125 L 116.492188 296.632812 L 92.5625 289.285156 Z M 81.671875 317.03125 " fill-opacity="1" fill-rule="nonzero"/><g clip-path="url(#86c349f283)"><path fill="#008fd6" d="M 38.035156 291.609375 L 38.035156 334.484375 L 71.878906 334.484375 L 83.261719 305.515625 Z M 38.035156 291.609375 " fill-opacity="1" fill-rule="nonzero"/></g><path fill="#008fd6" d="M 96.726562 255.289062 L 120.714844 262.640625 L 131.855469 234.832031 L 104.742188 234.832031 Z M 96.726562 255.289062 " fill-opacity="1" fill-rule="nonzero"/><g clip-path="url(#37dbb5098a)"><path fill="#008fd6" d="M 135.648438 57.945312 L 34.363281 57.945312 L 34.363281 273.054688 L 81.121094 287.445312 L 92.011719 259.640625 L 92.011719 110.007812 L 136.566406 110.007812 C 142.011719 110.007812 147.277344 110.4375 152.292969 111.292969 L 155.109375 110.128906 Z M 135.648438 57.945312 " fill-opacity="1" fill-rule="nonzero"/></g><g clip-path="url(#2b97855c14)"><path fill="#008fd6" d="M 192.195312 47.472656 C 178.425781 43.125 163.554688 40.796875 147.644531 40.488281 L 166.617188 91.144531 L 190.726562 81.40625 Z M 192.195312 47.472656 " fill-opacity="1" fill-rule="nonzero"/></g><path fill="#008fd6" d="M 210.863281 61.316406 C 208.046875 60.027344 205.109375 58.804688 202.171875 57.640625 C 200.828125 57.089844 199.417969 56.597656 198.011719 56.109375 L 196.605469 86.917969 L 218.574219 78.035156 Z M 210.863281 61.316406 " fill-opacity="1" fill-rule="nonzero"/><path fill="#008fd6" d="M 240.546875 63.273438 C 235.957031 60.089844 231.179688 57.210938 226.101562 54.578125 L 231.792969 66.828125 Z M 240.546875 63.273438 " fill-opacity="1" fill-rule="nonzero"/><path fill="#008fd6" d="M 229.527344 80.851562 L 205.539062 90.46875 L 204.742188 108.109375 L 236.140625 95.125 Z M 229.527344 80.851562 " fill-opacity="1" fill-rule="nonzero"/><path fill="#008fd6" d="M 265.574219 85.445312 C 264.902344 84.773438 264.167969 84.097656 263.496094 83.363281 C 260.007812 80.058594 256.335938 76.933594 252.480469 74.054688 L 241.402344 78.527344 L 247.949219 92.796875 Z M 265.574219 85.445312 " fill-opacity="1" fill-rule="nonzero"/><path fill="#008fd6" d="M 217.960938 130.832031 C 222.917969 136.835938 226.957031 143.757812 230.019531 151.472656 C 230.324219 152.269531 230.628906 153.128906 230.9375 153.921875 L 255.84375 139.222656 L 248.132812 122.5625 Z M 217.960938 130.832031 " fill-opacity="1" fill-rule="nonzero"/><path fill="#008fd6" d="M 231.914062 104.371094 L 198.5625 118.214844 L 198.5 119.683594 C 201.195312 121.707031 203.765625 123.972656 206.089844 126.363281 L 207.007812 127.339844 L 238.464844 118.644531 Z M 231.914062 104.371094 " fill-opacity="1" fill-rule="nonzero"/><path fill="#008fd6" d="M 285.160156 104.1875 C 281.425781 98.617188 277.265625 93.347656 272.675781 88.386719 L 253.703125 96.226562 L 260.496094 110.988281 Z M 285.160156 104.1875 " fill-opacity="1" fill-rule="nonzero"/><path fill="#008fd6" d="M 302.785156 122.136719 C 301.253906 119.074219 299.542969 116.070312 297.765625 113.132812 L 272.492188 120.113281 L 279.714844 135.792969 Z M 302.785156 122.136719 " fill-opacity="1" fill-rule="nonzero"/><path fill="#008fd6" d="M 220.839844 152.820312 L 195.503906 167.828125 C 197.339844 174.011719 198.441406 180.503906 198.867188 187.367188 L 226.773438 165.804688 Z M 220.839844 152.820312 " fill-opacity="1" fill-rule="nonzero"/><path fill="#008fd6" d="M 301.683594 156.433594 C 300.949219 154.476562 300.214844 152.515625 299.359375 150.617188 C 298.808594 149.328125 298.257812 148.042969 297.644531 146.820312 L 274.574219 160.476562 L 280.324219 172.910156 Z M 301.683594 156.433594 " fill-opacity="1" fill-rule="nonzero"/><path fill="#008fd6" d="M 261.476562 154.597656 L 231.914062 177.441406 L 231.914062 178.851562 C 231.914062 181.914062 231.792969 184.914062 231.488281 187.855469 L 240.789062 197.59375 L 271.207031 175.726562 Z M 261.476562 154.597656 " fill-opacity="1" fill-rule="nonzero"/><g clip-path="url(#70038c46e3)"><path fill="#008fd6" d="M 327.9375 170.277344 C 332.894531 162.925781 337.058594 155.332031 340.363281 147.371094 L 313.925781 145.960938 L 307.558594 168.5 Z M 327.9375 170.277344 " fill-opacity="1" fill-rule="nonzero"/></g><path fill="#008fd6" d="M 303.765625 241.507812 L 312.945312 251.1875 C 314.167969 248.738281 315.332031 246.226562 316.371094 243.714844 C 318.390625 238.9375 320.105469 234.097656 321.511719 229.136719 Z M 303.765625 241.507812 " fill-opacity="1" fill-rule="nonzero"/><path fill="#008fd6" d="M 286.140625 179.339844 L 256.824219 200.410156 L 279.652344 224.359375 L 300.214844 209.90625 Z M 286.140625 179.339844 " fill-opacity="1" fill-rule="nonzero"/><path fill="#008fd6" d="M 318.757812 188.40625 L 318.269531 187.792969 C 315.945312 184.792969 313.496094 181.976562 310.988281 179.21875 L 305.785156 197.347656 L 333.570312 211.496094 C 329.53125 203.472656 324.574219 195.816406 318.757812 188.40625 " fill-opacity="1" fill-rule="nonzero"/></svg>